<svg xmlns="http://www.w3.org/2000/svg" viewBox="0 0 1053.8 400"><style type="text/css">
	.st0{fill:#FFFFFF;}
	.st1{fill:#7E7E7E;}
</style><path class="st0" d="M9.6 330.8h12.3l20 31.4 20-31.4h12.3v66.5H62.4v-47.8l-21 31.4H41l-21-31v47.4H8.7v-66.5H9.6z"/><path class="st0" d="M115.7 330.3h10.9l29.2 67h-12.3l-6.8-15.9h-31.4l-6.8 15.9H86.6L115.7 330.3zM132.6 370.8L121.2 344l-11.4 26.4h22.8V370.8z"/><path class="st0" d="M167.2 330.8h29.6c8.2 0 15 2.3 19.1 6.8 3.6 3.6 5.5 8.7 5.5 14.1l0 0c0 10.9-6.4 17.3-15.9 20l17.8 25.1h-13.7l-16.4-23.2h-14.6v23.2h-11.8v-66.1H167.2zM195.9 363.6c8.2 0 13.7-4.6 13.7-10.9l0 0c0-7.3-5-10.9-13.7-10.9H179V364h16.9V363.6z"/><path class="st0" d="M236.4 330.8h11.8v66.5h-11.8V330.8z"/><path class="st0" d="M266.1 330.8H277l35.5 46v-46h11.4v66.5h-9.6l-36.9-47.4v47.4h-11.4C266.1 397.3 266.1 330.8 266.1 330.8z"/><path class="st0" d="M341.2 330.8h49.2v10.5h-37.8v17.3h33.3V369h-33.3v17.8h38.3v10.5h-49.7V330.8z"/><path class="st0" d="M430.1 364L430.1 364c0-19.1 14.1-34.6 34.2-34.6 12.3 0 19.6 4.1 26 10.5l-7.3 8.7c-5.5-5-10.9-8.2-18.7-8.2 -12.8 0-21.9 10.5-21.9 23.7l0 0c0 13.2 9.1 23.7 21.9 23.7 8.2 0 13.2-3.2 19.1-8.7l7.3 7.7c-6.8 7.3-14.6 11.8-26.9 11.8C444.6 398.2 430.1 383.1 430.1 364z"/><path class="st0" d="M498.4 364L498.4 364c0-19.1 14.6-34.6 35.1-34.6 20.5 0 34.6 15.5 34.6 34.2l0 0c0 18.7-14.6 34.6-35.1 34.6S498.4 382.7 498.4 364zM555.8 364L555.8 364c0-13.2-9.6-23.7-22.8-23.7s-22.3 10.5-22.3 23.7l0 0c0 12.8 9.6 23.7 22.8 23.7C546.7 387.7 555.8 377.2 555.8 364z"/><path class="st0" d="M582.2 330.8h29.6c8.2 0 15 2.3 19.1 6.8 3.6 3.6 5.5 8.7 5.5 14.1l0 0c0 10.9-6.4 17.3-15.9 20l17.8 25.1h-13.7l-16.4-23.2h-14.6v23.2h-11.8v-66.1H582.2zM610.9 363.6c8.2 0 13.7-4.6 13.7-10.9l0 0c0-7.3-5-10.9-13.7-10.9h-16.9V364h16.9V363.6z"/><path class="st0" d="M651 330.8h26.4c15.5 0 25.1 8.7 25.1 22.3l0 0c0 15-11.8 22.8-26.4 22.8h-13.2v21.4H651V330.8zM676.1 365.4c8.7 0 14.1-5 14.1-11.8l0 0c0-7.7-5.5-11.8-14.1-11.8h-13.7v24.1h13.7V365.4z"/><path class="st0" d="M709.8 387.7l6.8-8.2c6.4 5.5 12.8 8.7 21 8.7 7.3 0 11.8-3.2 11.8-8.2l0 0c0-4.6-2.7-7.3-15-10 -14.1-3.6-22.3-7.7-22.3-20l0 0c0-11.4 9.6-19.1 22.8-19.1 9.6 0 17.3 2.7 24.1 8.2l-6.4 8.7c-5.9-4.6-11.8-6.8-18.2-6.8 -6.8 0-10.9 3.6-10.9 7.7l0 0c0 5 3.2 7.3 15.9 10.5 14.1 3.6 21.4 8.7 21.4 19.6l0 0c0 12.3-9.6 20-23.7 20C727.6 398.2 718 394.5 709.8 387.7z"/><path class="st0" d="M793.6 344.4L793.6 344.4c0-7.7 5.9-14.1 14.1-14.1 5 0 8.2 1.8 10.9 4.1l-3.2 3.6c-2.3-1.8-4.6-3.2-7.7-3.2 -5.5 0-9.1 4.1-9.1 9.6l0 0c0 5.5 3.6 9.6 9.1 9.6 3.2 0 5.5-1.4 7.7-3.6l3.2 3.2c-2.7 3.2-5.9 5-10.9 5C799.5 358.5 793.6 352.2 793.6 344.4z"/><path class="st0" d="M821.9 344.4L821.9 344.4c0-7.7 5.9-14.1 14.6-14.1s14.1 6.4 14.1 14.1l0 0c0 7.7-5.9 14.1-14.6 14.1C827.8 358.5 821.9 352.2 821.9 344.4zM845.6 344.4L845.6 344.4c0-5.5-4.1-10-9.1-10 -5.5 0-9.1 4.6-9.1 9.6l0 0c0 5.5 4.1 9.6 9.1 9.6S845.6 349.4 845.6 344.4z"/><path class="st0" d="M856.5 330.3h5l8.2 12.8 8.2-12.8h5v27.3h-5v-19.1l-8.7 12.8 0 0 -8.7-12.8v19.6H856v-27.8H856.5z"/><path class="st0" d="M890.2 330.3h5l8.2 12.8 8.2-12.8h5v27.3h-5v-19.1l-8.7 12.8 0 0 -8.7-12.8v19.6h-4.6v-27.8H890.2z"/><path class="st0" d="M923.9 346.2v-15.9h5v15.5c0 5 2.7 7.7 6.8 7.7 4.1 0 6.8-2.7 6.8-7.7v-15.9h5v15.5c0 8.2-4.6 12.3-11.8 12.3C928.5 358.5 923.9 354.4 923.9 346.2z"/><path class="st0" d="M954 330.3h4.6l14.6 19.1v-19.1h4.6v27.3h-4.1l-15-19.6v19.6H954V330.3z"/><path class="st0" d="M985.4 330.3h5v27.3h-5V330.3z"/><path class="st0" d="M1004.1 334.9h-8.7v-4.6h22.3v4.6h-8.7v22.8h-5V334.9z"/><path class="st0" d="M1031 347.2l-10.9-16.4h5.5l7.7 12.3 7.7-12.3h5.5l-10.9 16.4v10.9h-5v-10.9H1031z"/><path class="st0" d="M793.2 395.4l2.7-3.6c2.7 2.3 5.5 3.6 8.7 3.6 3.2 0 5-1.4 5-3.6l0 0c0-1.8-0.9-3.2-6.4-4.1 -5.9-1.4-9.1-3.2-9.1-8.2l0 0c0-4.6 4.1-7.7 9.6-7.7 4.1 0 7.3 1.4 10 3.6l-2.7 3.6c-2.3-1.8-5-2.7-7.3-2.7 -2.7 0-4.6 1.4-4.6 3.2l0 0c0 2.3 1.4 3.2 6.4 4.1 5.9 1.4 8.7 3.6 8.7 8.2l0 0c0 5-4.1 8.2-10 8.2C800.5 400 796.4 398.6 793.2 395.4z"/><path class="st0" d="M820 372.2h20.5v4.1h-15.5v7.3h13.7v4.1h-13.7v7.3H841v4.1h-20.5v-26.9H820z"/><path class="st0" d="M846.5 372.2h12.3c3.6 0 6.4 0.9 7.7 2.7 1.4 1.4 2.3 3.6 2.3 5.9l0 0c0 4.6-2.7 7.3-6.4 8.2l7.3 10.5h-5.9l-6.8-9.6H851v9.6h-5v-27.3H846.5zM858.3 385.4c3.6 0 5.5-1.8 5.5-4.6l0 0c0-2.7-2.3-4.6-5.5-4.6h-6.8v9.1H858.3z"/><path class="st0" d="M871.5 372.2h5.5l8.2 21 8.2-21h5L887 400h-4.1L871.5 372.2z"/><path class="st0" d="M903.4 372.2h5v27.3h-5V372.2z"/><path class="st0" d="M914.4 385.9L914.4 385.9c0-7.7 5.9-14.1 14.1-14.1 5 0 8.2 1.8 10.9 4.1l-3.2 3.6c-2.3-1.8-4.6-3.2-7.7-3.2 -5.5 0-9.1 4.1-9.1 9.6l0 0c0 5.5 3.6 9.6 9.1 9.6 3.2 0 5.5-1.4 7.7-3.6l3.2 3.2c-2.7 3.2-5.9 5-10.9 5C920.3 400 914.4 393.6 914.4 385.9z"/><path class="st0" d="M944.4 372.2h20.5v4.1h-15.5v7.3h13.7v4.1h-13.7v7.3h15.9v4.1h-20.5v-26.9H944.4z"/><path class="st0" d="M969 395.4l2.7-3.6c2.7 2.3 5.5 3.6 8.7 3.6 3.2 0 5-1.4 5-3.6l0 0c0-1.8-0.9-3.2-6.4-4.1 -5.9-1.4-9.1-3.2-9.1-8.2l0 0c0-4.6 4.1-7.7 9.6-7.7 4.1 0 7.3 1.4 10 3.6l-2.7 3.6c-2.3-1.8-5-2.7-7.3-2.7 -2.7 0-4.6 1.4-4.6 3.2l0 0c0 2.3 1.4 3.2 6.4 4.1 5.9 1.4 8.7 3.6 8.7 8.2l0 0c0 5-4.1 8.2-10 8.2C976.3 400 972.2 398.6 969 395.4z"/><path class="st1" d="M633.7 120.7l-10.9 5c-0.5 0.5-0.5 0-0.9-0.5 -0.5-0.9 0.5-2.7 1.4-3.2l0 0 5-2.3c0.5-0.5 0.9-0.5 0.9-0.9l-1.8-2.3c0-0.5-0.5-0.5-0.9 0l-8.7 4.1c-0.5 0-0.9 0.5-0.9 0.9l0.5 2.3c0 1.4 0 4.6-1.8 5.5l0 0 0 0c-0.5 0.5-0.9 0.9-0.9 0.9l1.8 3.6c0 0.5 0.9 0.5 2.3 0l17.8-8.2c0.9-0.5 1.8-1.4 1.4-1.4l-1.8-3.6C635.5 120.3 634.6 120.3 633.7 120.7z"/><path class="st1" d="M654.7 204.6c0 0 0.5-0.5 0.9-0.9l9.6-4.6c0.5-0.5 0.9-0.5 1.4 0l0.5 2.7c0 0 0 0.5-0.9 0.9l-8.7 4.1c-0.5 0-0.9 0-0.9 0L654.7 204.6z"/><path class="st1" d="M538.5 37.4c0 0-8.2 5.9-7.3 11.4 0.5 2.3 7.3 2.3 7.3 2.3l1.4-12.8L538.5 37.4z"/><path class="st1" d="M571.3 56.5c0 0-5.9-22.3-5.9-23.2 -0.5-1.4-0.9-2.3-2.3-3.2 -0.5-0.5-7.7-4.1-7.7-4.1l-3.6 0.9c0 0 3.2 1.8 4.1 2.3 0.9 0.5 2.3 2.3 0.5 2.7 -1.8 0.5-3.6 0.9-3.6 0.9l-2.7-5c0 0-5.9-0.5-7.7-0.5 -2.3 0-2.7 1.4-2.7 1.4l-3.6 5.9 2.3-0.5 10.5 6.4 -5 15.9 4.6-2.3c0.9-0.5 1.8-0.9 3.6 0l5.5 3.2 5.5-2.7 0 0c2.3-0.9 3.2-0.5 4.1 0l0 0L571.3 56.5z"/><path class="st1" d="M626 16.4c0 0-0.9 0-1.4 0 -1.4 0.5-3.6 0.5-4.6 0.5 -3.6 0.5-4.6-2.3-4.6-2.3s3.2-4.6 4.1-5c0.5-0.5 0-1.8-0.5-1.8 -1.8 0.9-3.2 1.4-4.6 2.3 -1.8 0.9-5.5 2.3-5.5 0.5s0-3.2 0-3.2c-0.5-1.8-2.3-1.8-2.3-1.8h-51c0 0-2.7 0-3.6 0 -0.9 0-2.7-0.9-5.5-1.8 -3.2-1.4-7.3-3.2-8.7-3.6 -0.5 0-0.5 0-0.9 0 -2.3 0.5-10.5 2.7-11.4 9.1 -0.5 3.6 10.9 15 13.2 16.9 0.5 0 2.3 0 2.3 0s-5-8.7-5-9.6c0-0.5 1.8-1.8 2.3-2.3h0.5l6.4 3.6c0 0 0.9 0.5 2.3 0.5 6.8 0 57.4 0 58.3 0 0.9 0 0.9 0 0.9 0.5 0 0.9 0 2.3 0 3.6 0 0.9 0.9 1.8 1.8 1.8 4.1 1.4 12.8-2.7 18.2-5.9C626.9 17.3 626 16.9 626 16.4z"/><path class="st1" d="M491.6 294.3c0.9 0.5 2.3 1.4 2.3 2.3 0.9 3.2 0.9 3.2 1.8 3.6l0.9 0.5c0 0 0 0.5 0.5 0.9 -0.9 0.5-5 2.3-6.8 0.9 -0.9-0.5-1.4-0.9-1.4-1.8v-0.9c-0.5-3.6-0.9-5.5-2.7-5.9 0 0 0-0.5-0.5-0.9C486.6 293.4 489.3 293.4 491.6 294.3z"/><path class="st1" d="M482.5 294.8c0.9 0.5 1.8 1.8 1.8 3.2 0 3.2 0 3.2 0.9 4.1 0 0 0.5 0.5 0.9 0.9 0 0 0 0.5 0 0.9 -0.9 0-5 0.9-6.8-0.9 -0.5-0.5-0.9-0.9-0.9-1.8 0 0 0 0 0-0.5v-0.9c0-1.4 0-2.3 0-3.2 0-1.8-0.5-2.7-1.4-3.6 0 0 0-0.5 0-0.9C478.4 292.5 481.1 293.4 482.5 294.8z"/><path class="st1" d="M432.3 180.4c0.9 0 1.4 0 2.3 0.5h0.5c3.6 2.7 4.6 3.6 6.4 2.7l0.5 0.5c-0.9 0.9-4.6 4.6-7.3 3.2 -3.6-2.3-3.6-2.3-5.5-1.8h-0.5c0 0-0.5-0.5-0.9-0.5C428.2 184.5 430.1 180.9 432.3 180.4z"/><path class="st1" d="M469.2 163.1c-0.9-1.4-2.3-1.4-3.2-1.8 -4.1-0.5-8.2 1.8-8.7 1.8s-0.9 0-0.9 0c-4.6-1.8-10-4.6-10.5-4.6 0.5-1.4 1.8-3.2 1.8-3.2 0.5-0.5 14.1-19.6 44.2-19.1 3.2 0 4.6 0 6.8 0.5 -0.5 0.9-1.4 2.3-1.8 2.7 -9.6 12.3-18.2 38.7-18.2 39.2C470.2 171.8 472 167.7 469.2 163.1zM463.8 154.9c1.4 3.2 5 5 8.7 3.6 1.4-0.5 2.3-1.4 3.2-2.7v-0.5l0 0c-2.7 0.9-5.9 0-6.8-2.3 -0.9-2.3 0.5-5 3.2-6.4 0 0 0 0 0-0.5 0 0 0-0.5-0.5-0.5l0 0c-1.4-0.5-2.7 0-4.1 0.5C464.2 148.1 462.4 151.7 463.8 154.9z"/><path class="st1" d="M460.6 284.7c0.9 0.5 3.2 2.3 4.1 4.1 0.5 0.5 0.5 1.4 0.5 2.3 0 0.5 0 0.9 0 0.9 -0.9 1.8-0.9 2.7-0.9 3.2s0 0.5 0.5 0.9l0.5 0.9c0 0-0.5 0.5-0.5 0.9 -0.9 0-5-1.4-6.4-3.6 0-0.5-0.5-0.5-0.5-0.9s0-0.9 0.5-1.4l0.5-0.9c0.9-2.3 1.8-3.6 1.8-5 0-0.5 0-0.9-0.5-1.4C460.1 285.6 460.6 285.2 460.6 284.7z"/><path class="st1" d="M453.8 278.8c1.4 0.5 2.7 2.3 3.6 4.1 0 0.5 0.5 1.4 0.5 1.8s0 0.9-0.5 1.4c-1.4 2.3-1.4 3.2-1.4 4.1 0 0.5 0 0.9 0 1.4v0.5c0 0-0.5 0.5-0.5 0.9 -0.9-0.5-4.6-2.7-5-5v-0.5c0-0.5 0-0.9 0.5-1.4l0 0c1.8-2.7 2.7-4.1 2.7-5.5 0-0.5 0-0.9 0-1.4C453.3 279.7 453.3 279.3 453.8 278.8z"/><path class="st1" d="M447.8 271.5c1.4 0.9 2.7 2.7 3.2 4.6 0 0.5 0 0.9 0 1.4 0 0.9 0 1.4-0.5 2.3 -1.8 2.7-2.3 3.2-2.3 4.1v0.5 0.5l-0.5 0.5c-0.9-0.5-4.1-3.2-4.6-5.5 0 0 0 0 0-0.5s0-0.9 0.5-1.4l0 0c2.3-2.7 3.2-3.6 3.2-5.5 0-0.5 0-0.5 0-0.9C447.4 272 447.8 271.5 447.8 271.5z"/><path class="st1" d="M442.8 263.8c0.5 0.9 2.3 3.2 2.3 5.5 0 0.9-0.5 1.8-0.9 2.3 -2.7 2.7-2.7 3.2-2.7 4.6v0.5 0.5l-0.5 0.5c-0.5-0.5-3.6-2.7-3.6-5l0 0c0-0.9 0.5-1.4 0.9-1.8l0 0c2.7-2.7 4.1-3.6 4.1-5.5v-0.5C442.4 264.2 442.4 263.8 442.8 263.8z"/><path class="st1" d="M438.3 255.6c0.5 0.9 1.8 3.2 1.8 5.5 0 0.9-0.5 1.8-0.9 2.7 -3.2 2.7-3.2 2.7-3.2 4.6v0.5l-0.5 0.5c-0.5-0.5-3.2-3.2-3.2-5.5l0 0c0-0.9 0.5-1.4 0.9-1.8l0 0c3.2-2.7 4.6-3.6 4.6-5.5l0 0C437.8 256 438.3 255.6 438.3 255.6z"/><path class="st1" d="M418.2 221.4c0-1.4 0-3.6 1.4-5 0.5-0.9 1.4-1.4 2.7-1.4h0.5c3.6 0 4.6 0 5.5-1.4 0 0 0.5 0 0.9 0l0 0c0 1.4-0.5 6.4-4.1 6.4h-1.4c-2.7 0-3.2 0-4.6 2.3 0 0-0.5 0-0.9 0C418.2 221.9 418.2 221.9 418.2 221.4z"/><path class="st1" d="M428.7 221.4c0 0.5 0.5 1.4 0.5 2.7 0 1.8-0.5 4.1-2.7 4.6l-1.4 0.5c-2.3 0.5-3.2 0.9-4.1 3.2 0 0-0.5 0-0.9 0 0-0.5-0.5-1.8-0.5-3.2 0-0.9 0-1.8 0.5-2.7 0.5-0.9 1.4-1.4 2.3-1.8h0.5c3.6-0.9 4.6-1.4 5-2.7C428.2 221.9 428.7 221.4 428.7 221.4z"/><path class="st1" d="M431.4 196.8c0 0 0.5 0 0.9 0 0 0.9-1.4 5.9-5.5 5.5l-1.4-0.5c-2.7-0.5-3.2-0.5-5 0.9 0 0-0.5 0-0.9 0 0-0.9 0.9-4.1 2.7-5.5 0.9-0.5 1.8-0.9 2.7-0.5h0.5C429.2 197.7 430.5 198.2 431.4 196.8z"/><path class="st1" d="M429.2 205c0 0 0.5 0 0.9 0 0 0.9-0.9 6.4-4.6 5.9h-1.4c-2.7 0-3.2 0-5 1.4 0 0-0.5 0-0.9 0 0-0.9 0.5-4.1 1.8-5.9 0.9-0.5 1.8-0.9 2.7-0.9h0.5C427.3 205.9 428.2 205.9 429.2 205z"/><path class="st1" d="M431.9 238.7c0 0.5 0.9 2.7 0.9 4.6 0 1.4-0.5 2.7-1.8 3.6 -3.6 2.3-3.6 2.3-4.1 4.1v0.5c0 0-0.5 0.5-0.9 0.5 -0.5-0.5-2.3-3.2-2.3-5.5 0-0.5 0-0.5 0-0.9 0-0.9 0.5-1.4 1.4-1.8l0 0c4.1-1.8 5.5-2.7 5.5-4.6C431 239.2 431.4 238.7 431.9 238.7z"/><path class="st1" d="M429.6 230.5c0 0.5 0.5 1.8 0.5 3.6 0 1.8-0.5 3.2-2.3 4.1l-1.4 0c-2.3 0.9-3.2 1.4-3.6 3.6 0 0-0.5 0-0.9 0.5 0-0.5-0.9-2.3-0.9-4.1 0-0.5 0-1.4 0.5-1.8 0.5-0.9 0.9-1.8 2.3-1.8h0.5c3.2-1.4 4.6-1.8 4.6-3.2C429.2 230.5 429.6 230.5 429.6 230.5z"/><path class="st1" d="M434.6 246.9c0.5 0.9 1.4 3.2 1.4 5 0 1.4-0.5 2.3-1.4 2.7 -3.2 2.3-3.2 2.7-3.6 4.6v0.5c0 0-0.5 0.5-0.9 0.5 -0.5-0.5-2.7-3.2-2.7-5.5 0 0 0 0 0-0.5 0-0.9 0.5-1.4 1.4-1.8h0.5c3.6-2.3 5-3.2 5-5C434.2 247.4 434.6 247.4 434.6 246.9z"/><path class="st1" d="M426.4 188.2c0.9-0.5 1.4-0.5 2.3 0l0 0c4.1 1.8 5.5 2.3 6.8 1.4 0 0 0.5 0 0.9 0.5 -0.5 0.9-3.6 5.5-6.8 4.6 -4.1-1.4-4.1-1.4-5.5-0.9h-0.5c0 0-0.5 0-0.9-0.5C423.2 192.7 424.1 189.1 426.4 188.2z"/><path class="st1" d="M468.3 289.7c0.9 0 3.6 1.4 5 3.2 0.5 0.9 1.4 1.8 1.4 2.7v0.5c0 1.4-0.5 2.3-0.5 2.7 0 0.9 0 0.9 0.5 1.4l0.5 0.9c0 0 0 0.5 0 0.9 -0.9 0-5.5 0-6.8-1.8 -0.5-0.5-0.5-0.9-0.5-1.4 0-0.5 0-0.5 0-0.9V297c0.5-1.8 0.9-3.2 0.9-4.6 0-0.9 0-1.8-0.9-2.3C468.3 290.2 468.3 289.7 468.3 289.7z"/><path class="st1" d="M605 198.6c-0.5 0-0.5 0-0.5-1.4 0-0.5 0.5-0.9 0.9-0.9 0 0 8.2 0 16.4 1.8 1.4 0.5 2.7 0.5 4.1 0.9 0-5-0.9-10-1.8-14.6 -3.2-0.9-11.4-3.2-15-3.6 -5.9-0.9-15.9-1.8-15.9-1.8 -0.5 0-0.5 0-0.5-1.4 0-0.9 0-0.9 0.9-0.9 0 0 8.2 0 16.4 0.9 3.2 0.5 9.1 1.8 13.2 2.7 -1.4-5-3.6-9.6-5.9-14.1 -3.6-0.9-9.6-2.7-12.3-3.2 -5.9-1.4-16.4-1.8-16.4-1.8 -0.5 0-0.5 0-0.5-1.4 0-0.9 0.5-0.9 0.9-0.9 0 0 8.7-0.5 16.9 0.9 2.3 0.5 5.5 0.9 8.7 1.8 -3.2-5-7.3-9.1-11.8-13.2 -2.7-0.9-5.9-1.4-7.7-1.8 -5.9-1.4-15.9-2.3-15.9-2.3 -0.5 0-0.5 0-0.5-1.4 0-0.5 0.5-0.9 0.9-0.9 0 0 7.7-0.5 15.5 0.9 -10.9-7.3-24.1-11.4-38.3-11.4 -10 0-19.6 2.3-28.2 5.9l1.8 1.8c1.8-0.5 13.7-3.2 14.6-3.2 0.5 0 0.5 0 0.9 0.5 0.5 0 0.5 0 0.9 0 3.2-0.5 7.7-0.5 8.7-0.9 0.5 0 2.3 0.9 3.2 1.4v0.5c-0.5 0-7.7 3.6-8.2 4.1 -0.5 0.9 0.5 1.8 0.5 2.3 2.3 0.9 4.6 2.3 5.5 2.7 0.5 0.5 0.9 0.9 3.6 3.2 0.5 0.5 0.9 0 0.9 0 0.5 0 0.5 0 0.5-0.5l-0.5-0.9c0 0 0 0 0.5-0.5l2.7-1.4c0 0 0.5-0.5 0-0.9 -0.5-1.4-1.8-4.1-1.8-4.1 0.5 0 0.9-0.5 1.4-0.5 0.9 0 1.4 0.5 1.8 0.5 2.3 1.4 11.8 6.4 11.8 6.4 -0.5 0-1.8 0.9-2.7 1.4 -0.9 0-0.9 0-1.4 0l-9.6 9.6c-1.4 1.4 0.5 2.7-0.9 4.1 0 0.5-0.5 0.5-0.9 0.9s-2.3 2.3-3.2 3.6c-0.5 0.5-0.5 0.5-0.5 0.9 0 0.5 0 1.8 0.5 2.7 0.9 1.8 2.3 3.6 3.2 5 0.5 0.9 0.5 2.7 0 3.2 0 0.5-0.5 0.9-0.9 1.4 -1.4 0-2.7-0.9-2.7-1.4 0 0-0.9-0.9-1.8-2.7 0 0 0-0.9-0.5-0.9 -0.5-0.5-1.4-1.8-1.8-2.3 -0.9-0.5-4.6 0.5-5.9 0.9 -0.9-0.5-0.9-0.5-1.4-0.5 -3.2 0.9-4.1 0.9-5.9 1.8 -0.9 0.5-0.9 3.6-0.9 5.9 0 4.1 0.9 6.8 1.4 7.3 0.5 0 5.5 0 5.9-0.9 0.5-1.4 0.9-1.8 1.4-1.8s1.4 0 2.7 0c-0.5 0.9-0.5 1.8-0.9 2.7 0 0.9-0.5 1.4 0.9 1.8 0.9 0 1.4 0 2.3 0 0.5 0.9 0.9 2.3 0.9 3.6 0 0.9 4.1 0 4.6 0 0.9 0 2.7-0.5 3.2-1.4 1.4-2.3 1.8-2.7 4.1-2.7 0.9 0 8.7 0 11.4 0.9 1.8 0.9 13.7 7.7 15 8.7 2.7 2.3 2.7 1.8 2.7 3.6 0 0.5 0.9 0.9 1.8 1.8 0.9-0.5 1.8 0 2.3 0.5 1.4 0.5 5.9 5 6.4 5.5 0.5 0.5 1.4 1.4 0.9 2.3l-9.6 14.1c-1.4 1.8-3.6 2.7-4.1 2.7l-6.8 9.6c-0.5 0.5-1.8 0.5-2.3 0.5l-12.8 18.2c-3.2-0.9-3.2-4.1-1.4-12.3 -0.5-0.5-0.9-1.4-0.5-1.8 0.9-6.4 2.3-12.8 2.7-15.5 0.5-4.6-1.4-5-4.1-6.4 -8.2-3.6-7.7-5-10-10 0-0.5-0.5-0.9 0-1.4 0-1.8 3.2-8.2 2.3-9.6 0-0.5-1.4-2.7-1.8-3.2 -0.5-0.5-0.5-0.9-1.8-0.5 -1.8 0.5-2.3 0.5-4.1 0.9 -1.4 0-1.8-0.9-1.8-1.8s0-1.4-0.9-1.8c-1.4-0.5-2.7-0.9-5.5-1.8 -1.8-0.9-2.3 0-2.7 0.5 -2.3-0.9-6.8-2.3-10-3.6 -2.3-0.5-1.8-3.6-3.2-5.9l-5-5.9c-0.9-0.9-2.7-0.5-3.2 0 0.5 0.5 4.6 7.3 4.6 7.7 -0.5 0-1.4 0.9-1.8 0.9 -0.5 0-0.5-0.5-0.9-0.5 -3.6-4.1-12.3-11.4-13.2-12.8 -0.9-0.9-0.9-2.3-1.8-7.7 -0.9-4.6 0.9-5.9 2.7-8.7 0-0.5 0.5-0.5 0.5-0.9 0-0.5 0-1.4 0-1.4l-0.5-5.5c-4.1 3.6-7.7 7.3-10.9 11.8 3.6 0 5.9 0 5.9 0 0.5 0 0.9 0.5 0.9 0.9 0 1.4 0 1.4-0.5 1.4 0 0-4.6 0.9-9.1 1.8 -2.7 4.6-5 9.1-6.8 13.7 0.9 0 1.8-0.5 2.3-0.5 8.2-1.4 16.4-0.9 16.4-0.9 0.9 0 0.9 0.5 0.9 0.9 0 1.4 0 1.4-0.5 1.4 0 0-10 0.9-15.9 2.3 -1.4 0.5-2.7 0.5-4.6 0.9 -1.4 5-2.3 10-2.3 15 3.6-0.5 10.9-1.8 14.6-2.7 8.2-1.4 16.4-0.5 16.4-0.5 0.9 0 0.9 0.5 0.9 0.9 0 1.4 0 1.4-0.5 1.4 0 0-10 0-15.9 0.9 -4.1 0.9-12.3 2.7-15.5 3.6 0 5 0.5 10 1.8 14.6 3.6-0.9 10-1.8 13.7-2.3 8.2-0.9 16.4-0.5 16.4-0.5 0.9 0 0.9 0.5 0.9 0.9 0 1.4 0 1.4-0.5 1.4 0 0-10 0-15.9 1.4 -3.6 0.5-10 2.3-13.7 3.2 1.4 5.5 3.6 10.9 6.8 15.9 3.6-0.5 7.7-1.4 10.5-1.8 8.2-1.4 16.4-0.5 16.4-0.5 0.9 0 0.9 0.5 0.9 0.9 0 1.4 0 1.4-0.5 1.4 0 0-10 0.5-15.9 1.4 -2.3 0.5-5.9 1.4-9.1 1.8 3.6 5.5 8.2 10.5 13.2 15 1.4-0.5 2.7-0.5 3.6-0.5 8.2-1.4 16.4-0.5 16.4-0.5 0.5 0 0.9 0 0.9 0.9 0 1.4 0 1.4-0.5 1.4 0 0-10 0.9-15.9 2.3 0 0 0 0-0.5 0 11.4 8.2 25.5 13.2 40.5 13.2 14.1 0 27.3-4.1 38.7-11.8 -5.9-1.4-14.1-2.7-14.1-2.7 -0.5 0-0.5 0-0.5-1.4 0-0.9 0.5-0.9 0.9-0.9 0 0 8.2 0 16.4 1.4 0.5 0 0.9 0 1.4 0.5 5.5-4.1 10-9.1 14.1-14.6 -5.9-1.4-15.9-3.2-15.9-3.2 -0.5 0-0.5 0-0.5-1.4 0-0.9 0.5-0.9 0.9-0.9 0 0 8.2 0 16.4 1.8 0.5 0 0.9 0 1.4 0.5 3.2-5 5.5-10 7.3-15.5 -5-1.4-10.5-2.7-10.5-2.7 -0.5 0-0.5 0-0.5-1.4 0-0.5 0.5-0.9 0.9-0.9 0 0 5 0 10.9 0.9 1.4-4.6 1.8-9.6 2.3-14.6 -1.8-0.5-4.1-1.4-5.5-1.4C615.5 200 605 198.6 605 198.6z"/><path class="st1" d="M436 178.1c1.8 0 1.8 0 4.6 2.7 0.9 0.9 2.3 0.9 3.2 0.9 0.5 0 1.4 0 1.8-0.5 0.5-0.9 0.9-1.8 1.4-2.7 -1.4-0.5-2.3-1.8-4.1-4.1l0 0c-0.5-0.5-0.9-0.9-1.8-0.9 -2.3 0-5.5 2.7-5.9 3.6l0.5 0.5C435.5 178.1 436 178.1 436 178.1z"/><path class="st1" d="M495.2 293.8c0.9 0.9 1.8 2.3 3.2 4.6l0.5 0.5c0.5 0.9 0.9 1.4 1.8 1.4 2.3 0.5 5.5-2.7 6.4-3.6l0 0C503 295.7 499.3 294.8 495.2 293.8z"/><path class="st1" d="M707.5 133c-4.1-9.1-11.4-15-19.6-17.8 0 0.5 0 0.9 0 1.4 0 1.4 0 2.3-0.5 3.6l0 0 0.5 0.9c0.5 0.5 2.3 3.2 2.7 5.9 3.2 2.3 5.9 5.5 7.7 9.6 4.6 10.5 0.9 22.3-7.7 26 -7.3 3.2-15.5 0.5-21-5.9 0.5-0.9 0.5-2.3 0.5-3.2 0-4.1-2.3-7.7-5.9-9.1 -0.5-2.7 0-5.5 0.5-7.7 0-0.5 0-0.5 0-0.9 0-0.5 0-0.9 0-1.4l0 0 -0.9-1.4c-0.5-0.9-3.6-5.9-2.3-9.6V123v-0.5c-5.5 5.9-7.7 14.1-6.8 22.3 -0.9 0.9-1.8 1.4-2.7 2.7l-5.5 2.3 -10-21.4 -16.9 7.7 5 10.5c0.5 0 0.5 0.5 0.9 0.5h1.4c0.9 0 6.4 0.9 8.7 3.6l0.5 0.5h0.9c0.9 0 5.9 0.9 8.2 3.6 0 0 0 0 0 0.5h0.9c0.5 0 5 0.9 7.3 3.6h1.4c1.4 0 3.6 1.4 5.5 3.2l0 0c0.9 0 1.8 0 2.3-0.5 0.5 0.5 0.9 0.9 0.9 0.9 0.5 0.5 0.9 0.9 0.9 0.9l0 0c0.9 0.9 2.3 1.8 3.6 2.7l0 0c1.4 0.9 2.3 1.4 3.6 2.3l0 0c1.4 0.5 2.7 1.4 4.1 1.8l0 0c0.5 0 0.9 0.5 1.4 0.5l0 0c0.9 0.5 1.8 0.5 2.7 0.5l0 0c0.5 0 0.9 0 1.4 0l0 0c0.9 0 1.8 0 2.7 0l0 0c3.6 0 7.3-0.5 10.5-2.3C708.4 165.4 714.4 148.1 707.5 133z"/><path class="st1" d="M667.9 189.5c0-0.5-0.9-0.5-2.3 0l-6.4 2.7c0 0-0.5-0.5-0.5-0.9 -0.5-0.5-0.5-2.3 2.7-3.6l1.8-0.9 -3.6-7.7c-1.4 0-6.4-0.5-8.7-3.2l-1.4-0.5c-0.5 0-4.1-0.9-6.4-3.6l-2.3-0.9c-2.3-0.9-5-2.3-6.4-5h-0.9c-2.3 0-5-1.4-6.8-3.2h-1.8c-1.4 0-3.6-0.5-5.5-1.8l-0.9 0.5c3.2 5 5.9 10.5 7.7 16.4l10.5-5 11.4 24.1h-0.5c-0.9 0.5-1.8 1.4-1.4 1.4l1.8 3.6c0 0.5 0.9 0.5 2.3 0l17.8-8.2c0.9-0.5 1.8-1.4 1.4-1.4L667.9 189.5z"/><path class="st1" d="M623.2 149.9c0.5 0.5 0.9 0.9 0.9 1.8v0.5 0.9c0 1.4-0.5 2.7-0.5 3.6 0 1.4 0.5 2.3 0.9 3.2 0 0 0 0.5 0 0.9 -0.9 0-3.6-0.9-5.5-2.7 -0.9-0.5-1.8-1.8-1.8-3.2l0 0c0-0.5 0-1.4 0-1.8 0-1.8 0-1.8-0.9-2.7l-0.5-0.9c0 0 0-0.5 0-0.9C617.3 148.5 621.4 148.1 623.2 149.9z"/><path class="st1" d="M626.4 150.8c0.9 0 5 0.9 6.4 2.7 0.5 0.5 0.5 0.9 0.5 1.4v0.5l0 0c-0.5 2.3-0.9 3.6-0.9 4.6s0.5 1.8 0.9 2.3c0 0 0 0.5 0 0.9 -1.4 0-3.6-1.4-5-2.7 -0.5-0.5-1.4-1.8-1.4-2.7v-0.5c0-1.4 0.5-2.3 0.5-2.7 0-1.4-0.5-1.8-0.9-2.3l-0.5-0.5C626.4 151.7 626.4 151.3 626.4 150.8z"/><path class="st1" d="M636.4 155.4c0.9 0 4.6 0.9 5.9 2.7 0.5 0.5 0.5 0.9 0.5 1.4 0 0.5 0 0.5 0 0.9l0 0c-0.9 2.7-1.4 4.1-1.4 5 0 0.9 0 1.4 0.9 1.8 0 0 0 0.5 0 0.9 -0.9-0.5-5.5-2.3-5.5-5.5v-0.5c0.5-1.8 0.5-3.2 0.5-3.6 0-0.9-0.5-1.4-0.9-1.8 0 0 0-0.5-0.5-0.5C636.4 155.8 636.4 155.4 636.4 155.4z"/><path class="st1" d="M645.1 159.5c0.9 0 4.1 0.9 5.5 3.2 0.5 0.5 0.5 0.9 0.5 1.8 0 0.5 0 0.9 0 1.4v0.5c-0.5 2.3-0.9 3.2-0.9 4.1 0 0.5 0 0.9 0.5 1.4 0 0 0 0.5-0.5 0.9 -0.9 0-3.6-0.9-5-3.2 -0.5-0.5-0.5-0.9-0.5-1.8 0-0.5 0-0.5 0-0.9l0.5-1.4c0.5-1.4 0.5-1.8 0.5-2.7 0-0.9-0.5-1.4-0.9-2.3C645.1 160.4 645.1 159.9 645.1 159.5z"/><path class="st1" d="M654.2 163.6c0.9 0 3.2 1.8 4.6 3.6 0.5 0.5 0.9 1.8 0.9 2.7v0.5c-0.5 1.8-0.5 2.3-0.5 3.2 0 0.5 0 0.9 0.5 1.4l0.5 0.9c0 0 0 0.5 0 0.9 -0.9 0-5.5-0.5-6.8-2.3 -0.5-0.5-0.5-0.9-0.5-1.4 0-0.5 0-0.5 0-0.9v-0.9c0.5-2.3 1.4-3.6 1.4-5 0-0.9 0-1.4-0.5-1.8C653.8 164.5 654.2 163.6 654.2 163.6z"/><path class="st1" d="M672.4 174c0.5 0.9 0.9 1.4 0.9 2.7l0.5 0.9c0.5 0.9 0.9 1.4 1.8 1.4 2.3 0.5 5.9-1.8 6.8-2.3l0 0C678.8 176.3 675.6 175.4 672.4 174z"/><path class="st1" d="M670.2 176.8c-0.9-0.9-0.9-0.9-0.9-4.1 -2.7-1.4-5-3.2-6.8-5 0 0 0 0-0.5 0 0 0.5 0 0.9 0 0.9 0.9 0.9 1.4 1.8 1.4 3.6 0 0.9 0 1.8 0 2.7v0.9l0 0c0 0.9 0.5 1.4 0.9 1.8 1.8 1.4 6.4 0.9 7.3 0.5 0-0.5 0-0.9 0-0.9C671.1 177.2 670.2 176.8 670.2 176.8z"/><path class="st1" d="M614.6 155.8c0-0.5 0-1.4 0-2.3l-0.5-2.7c0-0.9-0.5-1.4-1.4-1.8 -1.4-0.9-3.2-0.5-4.6 0C610.5 150.8 612.8 153.5 614.6 155.8z"/><path class="st1" d="M682.9 145.8c0.5 0.5 1.8 3.6 1.8 5.5 0 0.5 0 0.9 0 1.4 -0.5 0.9-0.9 1.4-1.8 1.4H682c-3.6 0.9-5 1.4-5.9 3.2 0 0-0.5 0-0.9 0.5 0-0.5-0.5-1.4-0.5-2.3 0-1.4 0-2.7 0.5-3.6 0.5-0.9 0.9-2.3 2.3-2.7 3.2-1.4 3.2-1.4 3.6-2.3l0.5-0.9C682.5 146.2 682.9 145.8 682.9 145.8z"/><path class="st1" d="M693.8 140.8c0.5 0.5 2.7 3.6 2.7 5.9 0 0.5 0 0.5 0 0.9 0 0.9-0.9 1.4-1.4 1.8l-0.9 0.5c-3.2 1.4-5 2.3-5.5 4.1 0 0-0.5 0.5-0.9 0.5 -0.5-0.5-0.5-1.8-0.5-3.6 0-0.9 0-1.8 0.5-2.3 0.5-0.9 0.9-2.3 1.8-2.7 2.7-1.4 3.2-1.8 3.2-2.7l0.5-0.9C693.4 141.2 693.8 140.8 693.8 140.8z"/><path class="st1" d="M685.2 156.7l-0.9 0.9c-0.9 0.9-0.9 0.9-4.1 1.4 -0.9 0-1.8 0.9-2.7 1.8 0.5 0 0.5 0.5 0.9 0.5 2.7 0.9 5.5 1.4 7.7 0.9 0-0.5 0-0.5 0-0.9 0-1.8-0.5-3.2-0.5-3.6C686.1 156.3 685.6 156.3 685.2 156.7z"/><path class="st1" d="M697 151.7c-0.5 0.5-0.9 0.9-2.7 1.4l-1.4 0.5c-1.4 0.5-1.8 1.8-2.3 2.7 -0.5 1.4-0.5 2.7-0.5 4.1l0 0C693.4 158.5 695.7 155.4 697 151.7z"/><path class="st1" d="M674.7 127.6c0.5 0.5 1.8 2.7 1.8 4.6 0 0.5 0 0.5 0 0.9 0 0.9-0.9 1.8-1.4 2.3l-1.4 0.9c-2.3 1.4-2.7 1.8-3.2 4.1 0 0-0.5 0.5-0.9 0.5 -0.5-0.5-2.3-3.2-2.3-5 0-0.5 0-0.5 0-0.9 0-0.9 0.9-1.8 1.8-2.3l0.5-0.5c3.2-1.8 4.1-2.7 4.1-4.1C673.8 128 674.3 127.6 674.7 127.6z"/><path class="st1" d="M672.9 118.5c0.5 0.5 0.5 1.4 0.5 2.7 0 0.9 0 2.3-0.5 3.2 -0.5 0.9-0.9 2.3-1.8 2.7 -3.2 1.4-3.2 1.4-3.6 2.7l-0.5 0.9c0 0-0.5 0.5-0.9 0.5 -0.5-0.5-2.3-3.6-2.3-5.9 0-0.5 0-0.9 0-0.9 0.5-0.9 0.9-1.4 1.8-1.4l0.9-0.5c3.2-1.4 5-1.8 5.5-3.6C672 118.9 672.4 118.9 672.9 118.5z"/><path class="st1" d="M686.1 123c0.5 0.5 1.8 2.7 1.8 5v0.5c0 0.9-0.5 1.8-1.4 2.3l-1.4 0.9c-2.3 1.4-2.7 1.8-2.7 4.1 0 0-0.5 0.5-0.9 0.5 -0.5-0.5-2.3-3.2-2.3-5.5v-0.5c0-0.9 0.5-1.8 1.8-2.3l0.5-0.5c3.2-1.8 4.1-2.7 4.1-4.1l0 0C685.6 123.5 686.1 123.5 686.1 123z"/><path class="st1" d="M688.8 131.7c0.5 0.5 3.2 3.6 3.2 5.9 0 0 0 0 0 0.5 0 0.9-0.5 1.4-1.4 1.8l-0.9 0.5c-3.2 1.8-4.6 2.7-5 4.6 0 0-0.5 0.5-0.9 0.5 -0.5-0.9-1.4-3.2-1.4-5 0-0.5 0-0.5 0-0.9 0-0.9 0.5-2.3 1.4-3.2 2.7-1.8 2.7-2.3 2.7-3.2v-0.9C688.4 132.1 688.8 131.7 688.8 131.7z"/><path class="st1" d="M677.4 136.2c0.5 0.5 3.2 3.6 3.2 5.9v0.5c0 0.9-0.5 1.4-1.4 1.8l-0.9 0.5c-3.2 1.8-4.6 2.7-5 4.6 0 0-0.5 0.5-0.9 0.5 -0.5-0.9-0.9-2.7-0.9-4.6 0-0.5 0-0.9 0-1.4 0-0.9 0.5-2.3 1.4-3.2 2.7-1.8 2.7-1.8 3.2-3.2 0 0 0-0.9 0.5-0.9C677 136.7 677.4 136.7 677.4 136.2z"/><path class="st1" d="M674.7 114.4c0-1.8 0.9-4.1 2.3-5 0.9-0.5 1.8-0.9 2.7-0.9h0.5c0.9 0 1.8 0 2.3 0.5 0.5 0.5 0.9 0.9 0.9 1.4s0.5 0.9 0.5 1.4c0 0.9-0.5 0.9-1.8 1.4l0 0c-3.6 1.4-5.5 1.8-5.9 3.6 0 0-0.5 0-0.9 0.5C674.7 115.7 674.7 115.3 674.7 114.4z"/><path class="st1" d="M662.9 118.5c0-1.8 0.9-4.1 2.3-5 0.9-0.5 1.8-0.9 2.7-0.9h0.5c0.9 0 1.8 0 2.3 0.5 0.5 0.5 0.9 0.9 0.9 1.4s0.5 0.9 0.5 1.4c0 0.9-0.5 0.9-1.8 1.4l0 0c-3.6 1.4-5.5 1.8-5.9 3.6 0 0-0.5 0-0.9 0.5C663.3 120.3 662.9 119.4 662.9 118.5z"/><path class="st1" d="M684.7 113.9c0.5 0.5 0.5 1.8 0.5 3.2 0 0.9 0 1.8-0.5 2.7 -0.5 0.9-0.9 2.3-1.8 2.7 -2.7 1.4-3.2 1.4-3.2 2.7l-0.5 0.9c0 0-0.5 0.5-0.9 0.5 -0.5-0.5-2.3-3.6-2.3-5.9 0-0.5 0-0.5 0-0.9 0-0.9 0.9-1.4 1.8-1.8l0.9-0.5c3.2-1.4 5-1.8 5.5-3.6C683.8 113.9 684.3 113.9 684.7 113.9z"/><path class="st1" d="M423.7 253.3c0 0-0.5-0.5-0.5-0.9 -1.8 1.8-3.6 4.1-5 5 -0.9 0.9-4.6 3.2-3.6 4.6l0 0c0.5 1.4 4.6 0.5 5.9 0.5 1.8 0 5 0 7.7 0 -0.9-0.9-3.6-4.1-3.6-7.7L423.7 253.3z"/><path class="st1" d="M433.3 232.8L433.3 232.8 433.3 232.8z"/><path class="st1" d="M445.1 173.6c0.9 0.5 1.4 0.5 2.7 3.2 1.4-2.3 2.3-4.1 3.6-6.4 -0.5-0.5-0.9-0.5-1.4-0.9 -2.3-0.5-5.9 2.3-6.4 2.7l0.5 0.9C444.2 173.1 445.1 173.6 445.1 173.6z"/><path class="st1" d="M463.3 203.2c1.4-8.7 3.2-18.2 4.6-26v-0.5c0 0 0 0 0-0.5 0-0.5 0-0.5 0-0.9l0 0c0 0 0-0.5 0-0.9l0 0c0-0.5 0-1.4 0-1.8 -0.5-2.3-0.5-5.9-2.3-6.8 -1.4-0.9-6.4-0.5-7.3 0 -0.5 0-1.8 2.3-1.8 2.3 -0.5 0.9-1.4 1.8-1.8 2.7l0 0c-2.7 4.6-5 9.1-7.3 13.7l0 0c-8.2 16.9-12.8 34.2-15 45.6 0.5 0.9 0.5 1.8 0.9 2.7l0 0c0.5 0 0.9 0 1.4-0.5 0.5 0 0.9 0 1.4 0l0.5-0.5c0.9-1.8 4.1-4.1 7.3-4.6 0.5 0 0.5 0 0.9 0v-0.5c0.9-1.8 3.6-4.1 6.4-5.5 0.5-0.5 1.4-0.5 1.8-0.5 0.9-1.8 3.2-4.6 5.5-5.9 0.5 0 0.5-0.5 0.9-0.5 0.5-1.8 1.8-5 4.1-6.8l0 0L463.3 203.2z"/><path class="st1" d="M475.6 185.9c0.5 0.5 1.8 3.2 1.8 5.5 0 0.5 0 0.9-0.5 1.4 -0.5 0.9-0.9 1.4-1.8 1.4h-0.9c-3.6 0.9-5 1.4-5.9 3.2 0 0-0.5 0-0.9 0.5 0-0.5 0-0.9 0-1.8 0-1.4 0.5-2.7 0.9-4.1 0.5-0.9 0.9-2.3 2.3-2.7 3.2-0.9 3.2-1.4 3.6-2.3l0.5-0.9C474.7 185.9 475.2 185.9 475.6 185.9z"/><path class="st1" d="M459.2 216.9c0.9-0.5 2.3-0.9 3.2-0.5 3.2 0.9 3.2 0.9 4.1 0.5l0.9-0.5c0 0 0.5 0 0.9 0.5 0 0.9-0.9 5-3.2 6.4 -0.9 0.5-1.4 0.5-2.3 0l-0.9-0.5c-3.2-1.4-5-2.3-6.8-1.4 0 0-0.5 0-0.9-0.5C455.1 220 456.9 217.8 459.2 216.9z"/><path class="st1" d="M451.5 223.2c0.9-0.5 2.3-0.5 3.6 0 2.7 1.4 3.2 1.4 4.1 1.4h0.9c0 0 0.5 0.5 0.9 0.5 -0.5 0.9-1.8 5-4.1 5.5 -0.9 0.5-1.4 0-2.3-0.5l-0.9-0.5c-2.7-1.8-4.6-2.7-5.9-2.3 0 0-0.5-0.5-0.9-0.5C447.4 226 449.2 224.1 451.5 223.2z"/><path class="st1" d="M443.7 229.2c1.4-0.5 2.7-0.5 3.2 0.5 2.7 1.8 2.7 1.8 4.1 1.8h0.9c0 0 0.5 0.5 0.9 0.5 -0.5 0.9-2.3 4.6-5 5 -0.9 0-1.4 0-2.3-0.5l-0.9-0.5c-2.7-2.3-4.1-3.2-5.9-2.7 0 0-0.5-0.5-0.9-0.5C439.2 231.4 441.5 230.1 443.7 229.2z"/><path class="st1" d="M472 207.3l0.9-0.5c0 0 0.5 0 0.9 0v0.5c0 1.4 0 5-1.8 6.4 -0.5 0.5-1.4 0.9-2.3 0.5h-0.9c-3.6-0.9-5.5-0.9-6.8 0 0 0-0.5 0-0.9 0 0-0.9 1.4-3.6 3.2-5 0.9-0.5 1.8-1.4 3.2-1.4C471.1 208.2 471.1 208.2 472 207.3z"/><path class="st1" d="M476.5 196.8c0 0.5 0.5 1.8 0.5 3.6 0 1.4 0 2.7-0.9 3.6 -0.5 0.5-1.4 0.9-2.3 0.9h-0.9c-3.6 0-5.5 0-6.4 1.4 0 0-0.5 0-0.9 0l0 0c0-1.4 0.9-3.6 2.3-5.5 0.9-1.4 1.8-1.8 2.7-1.8 3.2 0 3.2-0.5 4.1-0.9 0 0 0.5-0.5 0.9-0.9C475.6 196.8 476.1 196.8 476.5 196.8z"/><path class="st1" d="M470.2 181.3c-0.5 1.8-0.9 3.6-1.4 5.9 0.9-0.9 1.8-1.4 3.6-2.7l0.9-0.5c0.9-0.5 1.4-0.9 1.4-1.8 0 0 0 0 0-0.5 0-2.3-2.7-5-3.6-5.9L470.2 181.3z"/><path class="st1" d="M436.4 241.9c0.5 0.5 1.4 0.9 2.3 0.9 2.3-0.5 5-4.1 5.5-4.6 0 0-0.5-0.5-0.9-0.5h-0.9c-1.4 0-1.4 0-3.6-1.8 -0.9-0.9-2.3-0.9-3.2-0.5 -0.5 0-0.9 0-1.4 0.5l0.9 2.3c0 0.5 0.5 1.8 0.9 3.6l0.5 0.5L436.4 241.9z"/><path class="st1" d="M497.9 250.6c0.9 0.5 4.1 2.7 4.6 5v0.5c0 0.5 0 0.9-0.5 1.4l0 0c-1.8 2.7-3.2 3.6-3.2 5.5 0 0.5 0 0.5 0 0.9 0 0-0.5 0.5-0.5 0.9 -1.4-0.9-2.7-2.7-3.2-4.6 0-0.5-0.5-0.9-0.5-1.4 0-0.5 0-1.4 0.5-1.8 1.4-2.3 1.8-3.2 1.8-4.1 0-0.5 0-0.5 0-0.9v-0.5C497.5 251.5 497.9 251 497.9 250.6z"/><path class="st1" d="M486.6 237.8c1.4 0.9 2.3 2.7 2.7 4.6 0 0.5 0 0.5 0 0.9 0 0.9 0 1.4-0.9 2.3 -2.3 2.7-2.3 3.2-2.3 4.6v0.5l-0.5 0.5c-0.9-0.5-4.1-3.2-4.1-5.5l0 0c0-0.5 0-0.9 0.5-1.4l0 0c2.3-2.7 3.6-3.6 3.6-5.5v-0.5C486.1 238.3 486.6 237.8 486.6 237.8z"/><path class="st1" d="M483.8 230.1c0.9 0.9 1.4 2.7 1.4 4.6v0.5c0 0.9-0.5 2.3-1.4 3.2 -2.7 2.3-3.2 2.3-3.6 4.1v0.5c0 0-0.5 0.5-0.9 0.5 -0.5-0.9-2.7-3.6-2.7-5.9v-0.5c0-0.5 0.5-1.4 0.9-1.4l0 0c3.2-1.8 4.6-2.7 5-4.6C483.4 230.1 483.8 230.1 483.8 230.1z"/><path class="st1" d="M483.8 221.4c0 0.5 0 0.9 0 1.4 0 1.4-0.5 3.2-0.9 4.6 -0.5 0.9-0.9 2.3-2.3 2.3 -3.2 0.9-3.2 0.9-3.6 2.3l-0.5 0.9c0 0-0.5 0-0.9 0.5 -0.5-0.5-1.4-3.2-1.4-5.5 0-0.5 0-0.9 0.5-1.4 0.5-0.9 0.9-1.4 1.8-1.4h0.9c3.6-0.9 5.5-1.4 5.9-2.7C482.9 221.9 483.4 221.4 483.8 221.4z"/><path class="st1" d="M491.6 244.6c0.9 0.5 4.1 2.3 4.6 4.1v0.5c0 0.5 0 0.9-0.5 1.4l0 0c-1.8 2.7-3.2 4.1-3.2 5.5 0 0.5 0 0.5 0 0.9l-0.5 0.5c-0.9-0.5-3.2-3.2-3.2-5.9 0-0.5 0-0.9 0.5-1.8 1.4-2.3 1.8-3.2 1.8-4.1 0-0.5 0-0.9 0-1.4v-0.5C491.1 245.1 491.6 244.6 491.6 244.6z"/><path class="st1" d="M484.3 205.5L484.3 205.5c-1.4-0.5-1.8-0.5-2.7-0.5 -2.3 0.9-3.2 5-3.6 5.9l0.9 0.5 0.9-0.5c0.9-0.5 1.4-0.5 4.1 0.9 0.5 0 0.9 0 0.9 0C484.7 210 484.7 207.7 484.3 205.5z"/><path class="st1" d="M485.6 214.1c-1.4 1.4-3.2 0.9-6.4 0h-0.9c-0.9 0-1.8 0-2.3 0.5 -1.4 1.4-1.8 4.6-1.8 6.4 0 0.5 0 0.5 0 0.5 0.5 0 0.9 0 0.9 0l0.9-0.5c0.9-0.9 0.9-0.9 4.1-0.5 1.4 0 2.3-0.5 3.2-1.4 0.9-0.9 1.8-2.3 2.3-3.6C485.6 215.5 485.6 214.6 485.6 214.1z"/><path class="st1" d="M511.2 275.6C511.6 275.6 511.6 275.6 511.2 275.6c1.4-0.5 1.8-1.4 1.8-1.8v-0.5c0-2.3-2.3-5-3.2-5.9 0 0-0.5 0.5-0.9 0.5l-0.5 0.9c-0.5 0.9-0.5 1.4-3.2 3.2l-0.5 0.5C507.5 273.3 509.3 274.7 511.2 275.6z"/><path class="st1" d="M501.6 269.7c0.5 0.5 1.4 0.9 1.8 1.4 0-1.4 1.4-2.7 3.6-4.6l1.4-0.9c0.5-0.5 0.9-1.4 0.9-1.8l0 0c0-2.3-3.6-5-4.6-5.5l-0.5 0.5v0.9l0 0c0 0.9 0 1.4-2.3 3.6 -0.5 0.9-0.9 1.8-0.9 2.7 0 0.5 0 0.5 0 0.5C501.1 267.9 501.6 268.8 501.6 269.7z"/><path class="st1" d="M486.1 220.5c0.5 0.5 0.5 1.4 0.5 2.3 0 1.4-0.5 3.2-0.9 5 1.4 1.8 2.3 4.6 2.3 7.3 1.4 0.9 2.7 2.7 3.6 5l3.6-1.8c-3.6-5.9-6.4-12.3-8.2-19.1 0 0 0 0 0 0.5C486.6 220 486.6 220 486.1 220.5z"/><path class="st1" d="M676.5 80.6c0 0 0-1.4-1.4-2.3 0 0-0.5-0.5-1.4-0.5 -13.2-5.5-47.4-23.7-62.9-31.9 -5.5-2.7-9.1-4.6-9.1-4.6 -0.5 0-4.1-1.4-6.4 0 -0.5 0-7.3 5-7.3 5s-0.5 0 0 0.5c0 1.4 0.9 6.4-0.5 7.3 -1.8 1.4-15.9 4.1-15.9 4.1l-1.8 2.7 -3.6-1.8c-0.9-0.5-1.8-0.5-3.2 0l-5.9 3.2 -5.9-3.2c-1.4-0.5-2.3-0.5-3.2 0l-3.6 1.8 -1.8-2.7c0 0-14.1-2.7-15.9-4.1 -1.4-0.9-0.5-5.9-0.5-7.3 0-0.5 0-0.5 0-0.5s-6.8-4.6-7.3-5c-2.3-1.8-5.9-0.5-6.4 0 0 0-3.6 1.8-9.1 4.6 -15.9 8.2-50.1 26.4-62.9 31.9 -0.9 0.5-0.9 0.5-1.4 0.5 -1.8 0.9-1.4 2.3-1.4 2.3v0.5c8.7 6.4 12.3 8.2 23.7 8.7h3.2c2.7 0 5.9 0 9.1-0.5 0.5 0 1.4-0.5 1.8-0.9 3.6-2.3 29.2-20 29.6-20.5 0.9-0.5 1.8-0.9 1.8-0.5l0.9 0.5c0 0 1.4 0.9 0.9 1.4s-21.9 20-21.9 20h9.6c0 0 4.1 0.5 6.4-1.8 2.3-1.8 11.4-10.9 11.8-11.4 0.5-0.5 1.4-0.5 1.8-0.5 0.9 0 2.3 0.9 2.3 0.9s0.5 0.5 0 0.9c-0.5 0.5-10.9 15-10.9 15s0.5 3.2 8.7 5c3.2 0.5 8.2 0.5 14.1 0.5 0 0 3.6-10.5 4.1-11.4 0.5-0.5 0.9-0.5 0.9-0.5s0.9 0 2.3 0.5c0.5 0 0.9 0.9 0.9 1.8l3.6 12.3c0 0.5 0 2.3-2.3 5.5 -2.3 3.2-14.6 20-15 20.5 -0.5 0.5 0.5 1.8 0.9 2.3l1.4 1.8c0.9 1.4 1.8 1.4 2.7 1.4l0 0 0 0c2.7-0.9 5.5-1.8 8.7-2.7l7.3-12.8c0.5-0.5 0.9-0.5 0.9-0.5s1.4 0.5 2.3 0.9c0.5 0 0.5 0.9 0.5 1.8 0 0.5-1.4 5-2.3 9.1 2.7-0.5 5.5-0.5 8.2-0.5 3.6 0 7.3 0 10.5 0.5 -0.5-1.4-1.8-8.7-2.3-9.1 0-0.5 0-1.4 0.5-1.8 0.9-0.5 2.3-0.9 2.3-0.9s0.5-0.5 0.9 0.5l7.3 12.8c2.7 0.9 5.5 1.4 8.2 2.7 0 0 0.5 0 0.5 0.5l0 0c0.9 0 1.4 0 2.7-1.4l1.4-1.8c0.5-0.5 1.4-1.8 0.9-2.3 -0.5-0.5-12.8-17.3-15-20.5 -1.8-3.2-2.3-5-2.3-5.5l3.6-12.3c0-0.9 0.5-1.8 0.9-1.8 1.4-0.5 2.3-0.5 2.3-0.5s0.5 0 0.9 0.5c0.5 0.9 4.1 11.4 4.1 11.4 5.9 0 10.9 0 14.1-0.5 8.2-1.8 8.7-5 8.7-5s-10.5-14.6-10.9-15 0-0.9 0-0.9 1.4-0.9 2.3-0.9c0.5 0 1.4 0 1.8 0.5 0.5 0.5 9.6 9.6 11.8 11.4 2.7 2.3 6.4 1.8 6.4 1.8h9.6c0 0-21.4-19.6-21.9-20 -0.5-0.5 0.9-1.4 0.9-1.4l0.9-0.5c0.5 0 1.4 0 1.8 0.5 0.5 0.5 26 17.8 29.6 20.5 0.5 0.5 1.4 0.5 1.8 0.9 3.6 0 6.8 0.5 9.1 0.5h3.2c11.4 0 15-2.3 23.7-8.7L676.5 80.6z"/><path class="st1" d="M558.1 284.3c-15.5-1.4-30.5-8.7-40.1-12.8 -0.5 0-0.9-0.5-0.9-0.5 0 0.9 0.5 2.7 0.5 3.6 0.5 0.9 2.3 8.2 3.6 8.7 1.8 0.5 12.3 2.7 20 2.3 0.5 1.8-0.5 2.7-6.4 3.2 -5.9 0.5-17.8 0.5-18.2 0 0-0.9 0-6.8-2.3-7.7 -1.4-0.9-2.3-1.4-3.6-2.3l0 0c-0.5-0.5-1.4-0.9-1.8-0.9 -0.5 0-0.5-0.5-0.9-0.5l0 0c-13.7-8.2-31.4-19.1-32.3-24.6 0-1.8 0.5-4.6 2.3-5.9l-0.9-1.4c-0.5-0.9-3.6-5-3.2-8.7l0 0 0 0 -0.9-1.8c-0.5-0.9-2.7-5.9-1.4-9.1l-1.8 0.9c-0.9 0.5-2.3 0-3.6-0.5 -0.9 0.5-2.3 0.5-3.2 0.5 -0.9 1.8-2.7 5.9-5.9 6.8 -0.9 0.5-1.4 0.5-2.3 0.5 -0.9 1.8-3.2 5.5-6.4 6.4 -0.9 0-1.8 0-2.7 0 -0.9 1.4-3.6 5.5-7.3 5.9 -0.5 0-1.4 0-1.8 0l0 0c0.5 0.5 1.4 2.7 1.8 5.5l1.8 2.3c0.5 0.5 1.8 2.7 2.3 5.5l1.8 2.3c1.4 1.4 2.7 4.1 3.2 6.4l1.4 0.9c1.4 0.5 2.3 1.8 3.2 3.2 9.6 5.5 24.1 12.8 40.1 17.8 5.5 1.8 10.9 3.2 16.4 4.1l0 0c3.2 0.5 6.4 1.4 9.6 1.4 0 0 0.5 0 0.5 1.4 -0.5 1.8-2.3 8.7-2.3 9.1 0.5 0 20 5.5 40.5-16.4 2.7-3.2 3.2-4.1 4.1-5.5C559.5 284.3 558.5 284.3 558.1 284.3z"/><path class="st0" d="M633.7 120.7l-10.9 5c-0.5 0.5-0.5 0-0.9-0.5 -0.5-0.9 0.5-2.7 1.4-3.2l0 0 5-2.3c0.5-0.5 0.9-0.5 0.9-0.9l-1.8-2.3c0-0.5-0.5-0.5-0.9 0l-8.7 4.1c-0.5 0-0.9 0.5-0.9 0.9l0.5 2.3c0 1.4 0 4.6-1.8 5.5l0 0 0 0c-0.5 0.5-0.9 0.9-0.9 0.9l1.8 3.6c0 0.5 0.9 0.5 2.3 0l17.8-8.2c0.9-0.5 1.8-1.4 1.4-1.4l-1.8-3.6C635.5 120.3 634.6 120.3 633.7 120.7z"/><path class="st0" d="M654.7 204.6c0 0 0.5-0.5 0.9-0.9l9.6-4.6c0.5-0.5 0.9-0.5 1.4 0l0.5 2.7c0 0 0 0.5-0.9 0.9l-8.7 4.1c-0.5 0-0.9 0-0.9 0L654.7 204.6z"/><path class="st0" d="M538.5 37.4c0 0-8.2 5.9-7.3 11.4 0.5 2.3 7.3 2.3 7.3 2.3l1.4-12.8L538.5 37.4z"/><path class="st0" d="M571.3 56.5c0 0-5.9-22.3-5.9-23.2 -0.5-1.4-0.9-2.3-2.3-3.2 -0.5-0.5-7.7-4.1-7.7-4.1l-3.6 0.9c0 0 3.2 1.8 4.1 2.3 0.9 0.5 2.3 2.3 0.5 2.7 -1.8 0.5-3.6 0.9-3.6 0.9l-2.7-5c0 0-5.9-0.5-7.7-0.5 -2.3 0-2.7 1.4-2.7 1.4l-3.6 5.9 2.3-0.5 10.5 6.4 -5 15.9 4.6-2.3c0.9-0.5 1.8-0.9 3.6 0l5.5 3.2 5.5-2.7 0 0c2.3-0.9 3.2-0.5 4.1 0l0 0L571.3 56.5z"/><path class="st0" d="M626 16.4c0 0-0.9 0-1.4 0 -1.4 0.5-3.6 0.5-4.6 0.5 -3.6 0.5-4.6-2.3-4.6-2.3s3.2-4.6 4.1-5c0.5-0.5 0-1.8-0.5-1.8 -1.8 0.9-3.2 1.4-4.6 2.3 -1.8 0.9-5.5 2.3-5.5 0.5s0-3.2 0-3.2c-0.5-1.8-2.3-1.8-2.3-1.8h-51c0 0-2.7 0-3.6 0 -0.9 0-2.7-0.9-5.5-1.8 -3.2-1.4-7.3-3.2-8.7-3.6 -0.5 0-0.5 0-0.9 0 -2.3 0.5-10.5 2.7-11.4 9.1 -0.5 3.6 10.9 15 13.2 16.9 0.5 0 2.3 0 2.3 0s-5-8.7-5-9.6c0-0.5 1.8-1.8 2.3-2.3h0.5l6.4 3.6c0 0 0.9 0.5 2.3 0.5 6.8 0 57.4 0 58.3 0 0.9 0 0.9 0 0.9 0.5 0 0.9 0 2.3 0 3.6 0 0.9 0.9 1.8 1.8 1.8 4.1 1.4 12.8-2.7 18.2-5.9C626.9 17.3 626 16.9 626 16.4z"/><path class="st0" d="M491.6 294.3c0.9 0.5 2.3 1.4 2.3 2.3 0.9 3.2 0.9 3.2 1.8 3.6l0.9 0.5c0 0 0 0.5 0.5 0.9 -0.9 0.5-5 2.3-6.8 0.9 -0.9-0.5-1.4-0.9-1.4-1.8v-0.9c-0.5-3.6-0.9-5.5-2.7-5.9 0 0 0-0.5-0.5-0.9C486.6 293.4 489.3 293.4 491.6 294.3z"/><path class="st0" d="M482.5 294.8c0.9 0.5 1.8 1.8 1.8 3.2 0 3.2 0 3.2 0.9 4.1 0 0 0.5 0.5 0.9 0.9 0 0 0 0.5 0 0.9 -0.9 0-5 0.9-6.8-0.9 -0.5-0.5-0.9-0.9-0.9-1.8 0 0 0 0 0-0.5v-0.9c0-1.4 0-2.3 0-3.2 0-1.8-0.5-2.7-1.4-3.6 0 0 0-0.5 0-0.9C478.4 292.5 481.1 293.4 482.5 294.8z"/><path class="st0" d="M432.3 180.4c0.9 0 1.4 0 2.3 0.5h0.5c3.6 2.7 4.6 3.6 6.4 2.7l0.5 0.5c-0.9 0.9-4.6 4.6-7.3 3.2 -3.6-2.3-3.6-2.3-5.5-1.8h-0.5c0 0-0.5-0.5-0.9-0.5C428.2 184.5 430.1 180.9 432.3 180.4z"/><path class="st0" d="M469.2 163.1c-0.9-1.4-2.3-1.4-3.2-1.8 -4.1-0.5-8.2 1.8-8.7 1.8s-0.9 0-0.9 0c-4.6-1.8-10-4.6-10.5-4.6 0.5-1.4 1.8-3.2 1.8-3.2 0.5-0.5 14.1-19.6 44.2-19.1 3.2 0 4.6 0 6.8 0.5 -0.5 0.9-1.4 2.3-1.8 2.7 -9.6 12.3-18.2 38.7-18.2 39.2C470.2 171.8 472 167.7 469.2 163.1zM463.8 154.9c1.4 3.2 5 5 8.7 3.6 1.4-0.5 2.3-1.4 3.2-2.7v-0.5l0 0c-2.7 0.9-5.9 0-6.8-2.3 -0.9-2.3 0.5-5 3.2-6.4 0 0 0 0 0-0.5 0 0 0-0.5-0.5-0.5l0 0c-1.4-0.5-2.7 0-4.1 0.5C464.2 148.1 462.4 151.7 463.8 154.9z"/><path class="st0" d="M460.6 284.7c0.9 0.5 3.2 2.3 4.1 4.1 0.5 0.5 0.5 1.4 0.5 2.3 0 0.5 0 0.9 0 0.9 -0.9 1.8-0.9 2.7-0.9 3.2s0 0.5 0.5 0.9l0.5 0.9c0 0-0.5 0.5-0.5 0.9 -0.9 0-5-1.4-6.4-3.6 0-0.5-0.5-0.5-0.5-0.9s0-0.9 0.5-1.4l0.5-0.9c0.9-2.3 1.8-3.6 1.8-5 0-0.5 0-0.9-0.5-1.4C460.1 285.6 460.6 285.2 460.6 284.7z"/><path class="st0" d="M453.8 278.8c1.4 0.5 2.7 2.3 3.6 4.1 0 0.5 0.5 1.4 0.5 1.8s0 0.9-0.5 1.4c-1.4 2.3-1.4 3.2-1.4 4.1 0 0.5 0 0.9 0 1.4v0.5c0 0-0.5 0.5-0.5 0.9 -0.9-0.5-4.6-2.7-5-5v-0.5c0-0.5 0-0.9 0.5-1.4l0 0c1.8-2.7 2.7-4.1 2.7-5.5 0-0.5 0-0.9 0-1.4C453.3 279.7 453.3 279.3 453.8 278.8z"/><path class="st0" d="M447.8 271.5c1.4 0.9 2.7 2.7 3.2 4.6 0 0.5 0 0.9 0 1.4 0 0.9 0 1.4-0.5 2.3 -1.8 2.7-2.3 3.2-2.3 4.1v0.5 0.5l-0.5 0.5c-0.9-0.5-4.1-3.2-4.6-5.5 0 0 0 0 0-0.5s0-0.9 0.5-1.4l0 0c2.3-2.7 3.2-3.6 3.2-5.5 0-0.5 0-0.5 0-0.9C447.4 272 447.8 271.5 447.8 271.5z"/><path class="st0" d="M442.8 263.8c0.5 0.9 2.3 3.2 2.3 5.5 0 0.9-0.5 1.8-0.9 2.3 -2.7 2.7-2.7 3.2-2.7 4.6v0.5 0.5l-0.5 0.5c-0.5-0.5-3.6-2.7-3.6-5l0 0c0-0.9 0.5-1.4 0.9-1.8l0 0c2.7-2.7 4.1-3.6 4.1-5.5v-0.5C442.4 264.2 442.4 263.8 442.8 263.8z"/><path class="st0" d="M438.3 255.6c0.5 0.9 1.8 3.2 1.8 5.5 0 0.9-0.5 1.8-0.9 2.7 -3.2 2.7-3.2 2.7-3.2 4.6v0.5l-0.5 0.5c-0.5-0.5-3.2-3.2-3.2-5.5l0 0c0-0.9 0.5-1.4 0.9-1.8l0 0c3.2-2.7 4.6-3.6 4.6-5.5l0 0C437.8 256 438.3 255.6 438.3 255.6z"/><path class="st0" d="M418.2 221.4c0-1.4 0-3.6 1.4-5 0.5-0.9 1.4-1.4 2.7-1.4h0.5c3.6 0 4.6 0 5.5-1.4 0 0 0.5 0 0.9 0l0 0c0 1.4-0.5 6.4-4.1 6.4h-1.4c-2.7 0-3.2 0-4.6 2.3 0 0-0.5 0-0.9 0C418.2 221.9 418.2 221.9 418.2 221.4z"/><path class="st0" d="M428.7 221.4c0 0.5 0.5 1.4 0.5 2.7 0 1.8-0.5 4.1-2.7 4.6l-1.4 0.5c-2.3 0.5-3.2 0.9-4.1 3.2 0 0-0.5 0-0.9 0 0-0.5-0.5-1.8-0.5-3.2 0-0.9 0-1.8 0.5-2.7 0.5-0.9 1.4-1.4 2.3-1.8h0.5c3.6-0.9 4.6-1.4 5-2.7C428.2 221.9 428.7 221.4 428.7 221.4z"/><path class="st0" d="M431.4 196.8c0 0 0.5 0 0.9 0 0 0.9-1.4 5.9-5.5 5.5l-1.4-0.5c-2.7-0.5-3.2-0.5-5 0.9 0 0-0.5 0-0.9 0 0-0.9 0.9-4.1 2.7-5.5 0.9-0.5 1.8-0.9 2.7-0.5h0.5C429.2 197.7 430.5 198.2 431.4 196.8z"/><path class="st0" d="M429.2 205c0 0 0.5 0 0.9 0 0 0.9-0.9 6.4-4.6 5.9h-1.4c-2.7 0-3.2 0-5 1.4 0 0-0.5 0-0.9 0 0-0.9 0.5-4.1 1.8-5.9 0.9-0.5 1.8-0.9 2.7-0.9h0.5C427.3 205.9 428.2 205.9 429.2 205z"/><path class="st0" d="M431.9 238.7c0 0.5 0.9 2.7 0.9 4.6 0 1.4-0.5 2.7-1.8 3.6 -3.6 2.3-3.6 2.3-4.1 4.1v0.5c0 0-0.5 0.5-0.9 0.5 -0.5-0.5-2.3-3.2-2.3-5.5 0-0.5 0-0.5 0-0.9 0-0.9 0.5-1.4 1.4-1.8l0 0c4.1-1.8 5.5-2.7 5.5-4.6C431 239.2 431.4 238.7 431.9 238.7z"/><path class="st0" d="M429.6 230.5c0 0.5 0.5 1.8 0.5 3.6 0 1.8-0.5 3.2-2.3 4.1l-1.4 0c-2.3 0.9-3.2 1.4-3.6 3.6 0 0-0.5 0-0.9 0.5 0-0.5-0.9-2.3-0.9-4.1 0-0.5 0-1.4 0.5-1.8 0.5-0.9 0.9-1.8 2.3-1.8h0.5c3.2-1.4 4.6-1.8 4.6-3.2C429.2 230.5 429.6 230.5 429.6 230.5z"/><path class="st0" d="M434.6 246.9c0.5 0.9 1.4 3.2 1.4 5 0 1.4-0.5 2.3-1.4 2.7 -3.2 2.3-3.2 2.7-3.6 4.6v0.5c0 0-0.5 0.5-0.9 0.5 -0.5-0.5-2.7-3.2-2.7-5.5 0 0 0 0 0-0.5 0-0.9 0.5-1.4 1.4-1.8h0.5c3.6-2.3 5-3.2 5-5C434.2 247.4 434.6 247.4 434.6 246.9z"/><path class="st0" d="M426.4 188.2c0.9-0.5 1.4-0.5 2.3 0l0 0c4.1 1.8 5.5 2.3 6.8 1.4 0 0 0.5 0 0.9 0.5 -0.5 0.9-3.6 5.5-6.8 4.6 -4.1-1.4-4.1-1.4-5.5-0.9h-0.5c0 0-0.5 0-0.9-0.5C423.2 192.7 424.1 189.1 426.4 188.2z"/><path class="st0" d="M468.3 289.7c0.9 0 3.6 1.4 5 3.2 0.5 0.9 1.4 1.8 1.4 2.7v0.5c0 1.4-0.5 2.3-0.5 2.7 0 0.9 0 0.9 0.5 1.4l0.5 0.9c0 0 0 0.5 0 0.9 -0.9 0-5.5 0-6.8-1.8 -0.5-0.5-0.5-0.9-0.5-1.4 0-0.5 0-0.5 0-0.9V297c0.5-1.8 0.9-3.2 0.9-4.6 0-0.9 0-1.8-0.9-2.3C468.3 290.2 468.3 289.7 468.3 289.7z"/><path class="st0" d="M605 198.6c-0.5 0-0.5 0-0.5-1.4 0-0.5 0.5-0.9 0.9-0.9 0 0 8.2 0 16.4 1.8 1.4 0.5 2.7 0.5 4.1 0.9 0-5-0.9-10-1.8-14.6 -3.2-0.9-11.4-3.2-15-3.6 -5.9-0.9-15.9-1.8-15.9-1.8 -0.5 0-0.5 0-0.5-1.4 0-0.9 0-0.9 0.9-0.9 0 0 8.2 0 16.4 0.9 3.2 0.5 9.1 1.8 13.2 2.7 -1.4-5-3.6-9.6-5.9-14.1 -3.6-0.9-9.6-2.7-12.3-3.2 -5.9-1.4-16.4-1.8-16.4-1.8 -0.5 0-0.5 0-0.5-1.4 0-0.9 0.5-0.9 0.9-0.9 0 0 8.7-0.5 16.9 0.9 2.3 0.5 5.5 0.9 8.7 1.8 -3.2-5-7.3-9.1-11.8-13.2 -2.7-0.9-5.9-1.4-7.7-1.8 -5.9-1.4-15.9-2.3-15.9-2.3 -0.5 0-0.5 0-0.5-1.4 0-0.5 0.5-0.9 0.9-0.9 0 0 7.7-0.5 15.5 0.9 -10.9-7.3-24.1-11.4-38.3-11.4 -10 0-19.6 2.3-28.2 5.9l1.8 1.8c1.8-0.5 13.7-3.2 14.6-3.2 0.5 0 0.5 0 0.9 0.5 0.5 0 0.5 0 0.9 0 3.2-0.5 7.7-0.5 8.7-0.9 0.5 0 2.3 0.9 3.2 1.4v0.5c-0.5 0-7.7 3.6-8.2 4.1 -0.5 0.9 0.5 1.8 0.5 2.3 2.3 0.9 4.6 2.3 5.5 2.7 0.5 0.5 0.9 0.9 3.6 3.2 0.5 0.5 0.9 0 0.9 0 0.5 0 0.5 0 0.5-0.5l-0.5-0.9c0 0 0 0 0.5-0.5l2.7-1.4c0 0 0.5-0.5 0-0.9 -0.5-1.4-1.8-4.1-1.8-4.1 0.5 0 0.9-0.5 1.4-0.5 0.9 0 1.4 0.5 1.8 0.5 2.3 1.4 11.8 6.4 11.8 6.4 -0.5 0-1.8 0.9-2.7 1.4 -0.9 0-0.9 0-1.4 0l-9.6 9.6c-1.4 1.4 0.5 2.7-0.9 4.1 0 0.5-0.5 0.5-0.9 0.9s-2.3 2.3-3.2 3.6c-0.5 0.5-0.5 0.5-0.5 0.9 0 0.5 0 1.8 0.5 2.7 0.9 1.8 2.3 3.6 3.2 5 0.5 0.9 0.5 2.7 0 3.2 0 0.5-0.5 0.9-0.9 1.4 -1.4 0-2.7-0.9-2.7-1.4 0 0-0.9-0.9-1.8-2.7 0 0 0-0.9-0.5-0.9 -0.5-0.5-1.4-1.8-1.8-2.3 -0.9-0.5-4.6 0.5-5.9 0.9 -0.9-0.5-0.9-0.5-1.4-0.5 -3.2 0.9-4.1 0.9-5.9 1.8 -0.9 0.5-0.9 3.6-0.9 5.9 0 4.1 0.9 6.8 1.4 7.3 0.5 0 5.5 0 5.9-0.9 0.5-1.4 0.9-1.8 1.4-1.8s1.4 0 2.7 0c-0.5 0.9-0.5 1.8-0.9 2.7 0 0.9-0.5 1.4 0.9 1.8 0.9 0 1.4 0 2.3 0 0.5 0.9 0.9 2.3 0.9 3.6 0 0.9 4.1 0 4.6 0 0.9 0 2.7-0.5 3.2-1.4 1.4-2.3 1.8-2.7 4.1-2.7 0.9 0 8.7 0 11.4 0.9 1.8 0.9 13.7 7.7 15 8.7 2.7 2.3 2.7 1.8 2.7 3.6 0 0.5 0.9 0.9 1.8 1.8 0.9-0.5 1.8 0 2.3 0.5 1.4 0.5 5.9 5 6.4 5.5 0.5 0.5 1.4 1.4 0.9 2.3l-9.6 14.1c-1.4 1.8-3.6 2.7-4.1 2.7l-6.8 9.6c-0.5 0.5-1.8 0.5-2.3 0.5l-12.8 18.2c-3.2-0.9-3.2-4.1-1.4-12.3 -0.5-0.5-0.9-1.4-0.5-1.8 0.9-6.4 2.3-12.8 2.7-15.5 0.5-4.6-1.4-5-4.1-6.4 -8.2-3.6-7.7-5-10-10 0-0.5-0.5-0.9 0-1.4 0-1.8 3.2-8.2 2.3-9.6 0-0.5-1.4-2.7-1.8-3.2 -0.5-0.5-0.5-0.9-1.8-0.5 -1.8 0.5-2.3 0.5-4.1 0.9 -1.4 0-1.8-0.9-1.8-1.8s0-1.4-0.9-1.8c-1.4-0.5-2.7-0.9-5.5-1.8 -1.8-0.9-2.3 0-2.7 0.5 -2.3-0.9-6.8-2.3-10-3.6 -2.3-0.5-1.8-3.6-3.2-5.9l-5-5.9c-0.9-0.9-2.7-0.5-3.2 0 0.5 0.5 4.6 7.3 4.6 7.7 -0.5 0-1.4 0.9-1.8 0.9 -0.5 0-0.5-0.5-0.9-0.5 -3.6-4.1-12.3-11.4-13.2-12.8 -0.9-0.9-0.9-2.3-1.8-7.7 -0.9-4.6 0.9-5.9 2.7-8.7 0-0.5 0.5-0.5 0.5-0.9 0-0.5 0-1.4 0-1.4l-0.5-5.5c-4.1 3.6-7.7 7.3-10.9 11.8 3.6 0 5.9 0 5.9 0 0.5 0 0.9 0.5 0.9 0.9 0 1.4 0 1.4-0.5 1.4 0 0-4.6 0.9-9.1 1.8 -2.7 4.6-5 9.1-6.8 13.7 0.9 0 1.8-0.5 2.3-0.5 8.2-1.4 16.4-0.9 16.4-0.9 0.9 0 0.9 0.5 0.9 0.9 0 1.4 0 1.4-0.5 1.4 0 0-10 0.9-15.9 2.3 -1.4 0.5-2.7 0.5-4.6 0.9 -1.4 5-2.3 10-2.3 15 3.6-0.5 10.9-1.8 14.6-2.7 8.2-1.4 16.4-0.5 16.4-0.5 0.9 0 0.9 0.5 0.9 0.9 0 1.4 0 1.4-0.5 1.4 0 0-10 0-15.9 0.9 -4.1 0.9-12.3 2.7-15.5 3.6 0 5 0.5 10 1.8 14.6 3.6-0.9 10-1.8 13.7-2.3 8.2-0.9 16.4-0.5 16.4-0.5 0.9 0 0.9 0.5 0.9 0.9 0 1.4 0 1.4-0.5 1.4 0 0-10 0-15.9 1.4 -3.6 0.5-10 2.3-13.7 3.2 1.4 5.5 3.6 10.9 6.8 15.9 3.6-0.5 7.7-1.4 10.5-1.8 8.2-1.4 16.4-0.5 16.4-0.5 0.9 0 0.9 0.5 0.9 0.9 0 1.4 0 1.4-0.5 1.4 0 0-10 0.5-15.9 1.4 -2.3 0.5-5.9 1.4-9.1 1.8 3.6 5.5 8.2 10.5 13.2 15 1.4-0.5 2.7-0.5 3.6-0.5 8.2-1.4 16.4-0.5 16.4-0.5 0.5 0 0.9 0 0.9 0.9 0 1.4 0 1.4-0.5 1.4 0 0-10 0.9-15.9 2.3 0 0 0 0-0.5 0 11.4 8.2 25.5 13.2 40.5 13.2 14.1 0 27.3-4.1 38.7-11.8 -5.9-1.4-14.1-2.7-14.1-2.7 -0.5 0-0.5 0-0.5-1.4 0-0.9 0.5-0.9 0.9-0.9 0 0 8.2 0 16.4 1.4 0.5 0 0.9 0 1.4 0.5 5.5-4.1 10-9.1 14.1-14.6 -5.9-1.4-15.9-3.2-15.9-3.2 -0.5 0-0.5 0-0.5-1.4 0-0.9 0.5-0.9 0.9-0.9 0 0 8.2 0 16.4 1.8 0.5 0 0.9 0 1.4 0.5 3.2-5 5.5-10 7.3-15.5 -5-1.4-10.5-2.7-10.5-2.7 -0.5 0-0.5 0-0.5-1.4 0-0.5 0.5-0.9 0.9-0.9 0 0 5 0 10.9 0.9 1.4-4.6 1.8-9.6 2.3-14.6 -1.8-0.5-4.1-1.4-5.5-1.4C615.5 200 605 198.6 605 198.6z"/><path class="st0" d="M436 178.1c1.8 0 1.8 0 4.6 2.7 0.9 0.9 2.3 0.9 3.2 0.9 0.5 0 1.4 0 1.8-0.5 0.5-0.9 0.9-1.8 1.4-2.7 -1.4-0.5-2.3-1.8-4.1-4.1l0 0c-0.5-0.5-0.9-0.9-1.8-0.9 -2.3 0-5.5 2.7-5.9 3.6l0.5 0.5C435.5 178.1 436 178.1 436 178.1z"/><path class="st0" d="M495.2 293.8c0.9 0.9 1.8 2.3 3.2 4.6l0.5 0.5c0.5 0.9 0.9 1.4 1.8 1.4 2.3 0.5 5.5-2.7 6.4-3.6l0 0C503 295.7 499.3 294.8 495.2 293.8z"/><path class="st0" d="M707.5 133c-4.1-9.1-11.4-15-19.6-17.8 0 0.5 0 0.9 0 1.4 0 1.4 0 2.3-0.5 3.6l0 0 0.5 0.9c0.5 0.5 2.3 3.2 2.7 5.9 3.2 2.3 5.9 5.5 7.7 9.6 4.6 10.5 0.9 22.3-7.7 26 -7.3 3.2-15.5 0.5-21-5.9 0.5-0.9 0.5-2.3 0.5-3.2 0-4.1-2.3-7.7-5.9-9.1 -0.5-2.7 0-5.5 0.5-7.7 0-0.5 0-0.5 0-0.9 0-0.5 0-0.9 0-1.4l0 0 -0.9-1.4c-0.5-0.9-3.6-5.9-2.3-9.6V123v-0.5c-5.5 5.9-7.7 14.1-6.8 22.3 -0.9 0.9-1.8 1.4-2.7 2.7l-5.5 2.3 -10-21.4 -16.9 7.7 5 10.5c0.5 0 0.5 0.5 0.9 0.5h1.4c0.9 0 6.4 0.9 8.7 3.6l0.5 0.5h0.9c0.9 0 5.9 0.9 8.2 3.6 0 0 0 0 0 0.5h0.9c0.5 0 5 0.9 7.3 3.6h1.4c1.4 0 3.6 1.4 5.5 3.2l0 0c0.9 0 1.8 0 2.3-0.5 0.5 0.5 0.9 0.9 0.9 0.9 0.5 0.5 0.9 0.9 0.9 0.9l0 0c0.9 0.9 2.3 1.8 3.6 2.7l0 0c1.4 0.9 2.3 1.4 3.6 2.3l0 0c1.4 0.5 2.7 1.4 4.1 1.8l0 0c0.5 0 0.9 0.5 1.4 0.5l0 0c0.9 0.5 1.8 0.5 2.7 0.5l0 0c0.5 0 0.9 0 1.4 0l0 0c0.9 0 1.8 0 2.7 0l0 0c3.6 0 7.3-0.5 10.5-2.3C708.4 165.4 714.4 148.1 707.5 133z"/><path class="st0" d="M667.9 189.5c0-0.5-0.9-0.5-2.3 0l-6.4 2.7c0 0-0.5-0.5-0.5-0.9 -0.5-0.5-0.5-2.3 2.7-3.6l1.8-0.9 -3.6-7.7c-1.4 0-6.4-0.5-8.7-3.2l-1.4-0.5c-0.5 0-4.1-0.9-6.4-3.6l-2.3-0.9c-2.3-0.9-5-2.3-6.4-5h-0.9c-2.3 0-5-1.4-6.8-3.2h-1.8c-1.4 0-3.6-0.5-5.5-1.8l-0.9 0.5c3.2 5 5.9 10.5 7.7 16.4l10.5-5 11.4 24.1h-0.5c-0.9 0.5-1.8 1.4-1.4 1.4l1.8 3.6c0 0.5 0.9 0.5 2.3 0l17.8-8.2c0.9-0.5 1.8-1.4 1.4-1.4L667.9 189.5z"/><path class="st0" d="M623.2 149.9c0.5 0.5 0.9 0.9 0.9 1.8v0.5 0.9c0 1.4-0.5 2.7-0.5 3.6 0 1.4 0.5 2.3 0.9 3.2 0 0 0 0.5 0 0.9 -0.9 0-3.6-0.9-5.5-2.7 -0.9-0.5-1.8-1.8-1.8-3.2l0 0c0-0.5 0-1.4 0-1.8 0-1.8 0-1.8-0.9-2.7l-0.5-0.9c0 0 0-0.5 0-0.9C617.3 148.5 621.4 148.1 623.2 149.9z"/><path class="st0" d="M626.4 150.8c0.9 0 5 0.9 6.4 2.7 0.5 0.5 0.5 0.9 0.5 1.4v0.5l0 0c-0.5 2.3-0.9 3.6-0.9 4.6s0.5 1.8 0.9 2.3c0 0 0 0.5 0 0.9 -1.4 0-3.6-1.4-5-2.7 -0.5-0.5-1.4-1.8-1.4-2.7v-0.5c0-1.4 0.5-2.3 0.5-2.7 0-1.4-0.5-1.8-0.9-2.3l-0.5-0.5C626.4 151.7 626.4 151.3 626.4 150.8z"/><path class="st0" d="M636.4 155.4c0.9 0 4.6 0.9 5.9 2.7 0.5 0.5 0.5 0.9 0.5 1.4 0 0.5 0 0.5 0 0.9l0 0c-0.9 2.7-1.4 4.1-1.4 5 0 0.9 0 1.4 0.9 1.8 0 0 0 0.5 0 0.9 -0.9-0.5-5.5-2.3-5.5-5.5v-0.5c0.5-1.8 0.5-3.2 0.5-3.6 0-0.9-0.5-1.4-0.9-1.8 0 0 0-0.5-0.5-0.5C636.4 155.8 636.4 155.4 636.4 155.4z"/><path class="st0" d="M645.1 159.5c0.9 0 4.1 0.9 5.5 3.2 0.5 0.5 0.5 0.9 0.5 1.8 0 0.5 0 0.9 0 1.4v0.5c-0.5 2.3-0.9 3.2-0.9 4.1 0 0.5 0 0.9 0.5 1.4 0 0 0 0.5-0.5 0.9 -0.9 0-3.6-0.9-5-3.2 -0.5-0.5-0.5-0.9-0.5-1.8 0-0.5 0-0.5 0-0.9l0.5-1.4c0.5-1.4 0.5-1.8 0.5-2.7 0-0.9-0.5-1.4-0.9-2.3C645.1 160.4 645.1 159.9 645.1 159.5z"/><path class="st0" d="M654.2 163.6c0.9 0 3.2 1.8 4.6 3.6 0.5 0.5 0.9 1.8 0.9 2.7v0.5c-0.5 1.8-0.5 2.3-0.5 3.2 0 0.5 0 0.9 0.5 1.4l0.5 0.9c0 0 0 0.5 0 0.9 -0.9 0-5.5-0.5-6.8-2.3 -0.5-0.5-0.5-0.9-0.5-1.4 0-0.5 0-0.5 0-0.9v-0.9c0.5-2.3 1.4-3.6 1.4-5 0-0.9 0-1.4-0.5-1.8C653.8 164.5 654.2 163.6 654.2 163.6z"/><path class="st0" d="M672.4 174c0.5 0.9 0.9 1.4 0.9 2.7l0.5 0.9c0.5 0.9 0.9 1.4 1.8 1.4 2.3 0.5 5.9-1.8 6.8-2.3l0 0C678.8 176.3 675.6 175.4 672.4 174z"/><path class="st0" d="M670.2 176.8c-0.9-0.9-0.9-0.9-0.9-4.1 -2.7-1.4-5-3.2-6.8-5 0 0 0 0-0.5 0 0 0.5 0 0.9 0 0.9 0.9 0.9 1.4 1.8 1.4 3.6 0 0.9 0 1.8 0 2.7v0.9l0 0c0 0.9 0.5 1.4 0.9 1.8 1.8 1.4 6.4 0.9 7.3 0.5 0-0.5 0-0.9 0-0.9C671.1 177.2 670.2 176.8 670.2 176.8z"/><path class="st0" d="M614.6 155.8c0-0.5 0-1.4 0-2.3l-0.5-2.7c0-0.9-0.5-1.4-1.4-1.8 -1.4-0.9-3.2-0.5-4.6 0C610.5 150.8 612.8 153.5 614.6 155.8z"/><path class="st0" d="M682.9 145.8c0.5 0.5 1.8 3.6 1.8 5.5 0 0.5 0 0.9 0 1.4 -0.5 0.9-0.9 1.4-1.8 1.4H682c-3.6 0.9-5 1.4-5.9 3.2 0 0-0.5 0-0.9 0.5 0-0.5-0.5-1.4-0.5-2.3 0-1.4 0-2.7 0.5-3.6 0.5-0.9 0.9-2.3 2.3-2.7 3.2-1.4 3.2-1.4 3.6-2.3l0.5-0.9C682.5 146.2 682.9 145.8 682.9 145.8z"/><path class="st0" d="M693.8 140.8c0.5 0.5 2.7 3.6 2.7 5.9 0 0.5 0 0.5 0 0.9 0 0.9-0.9 1.4-1.4 1.8l-0.9 0.5c-3.2 1.4-5 2.3-5.5 4.1 0 0-0.5 0.5-0.9 0.5 -0.5-0.5-0.5-1.8-0.5-3.6 0-0.9 0-1.8 0.5-2.3 0.5-0.9 0.9-2.3 1.8-2.7 2.7-1.4 3.2-1.8 3.2-2.7l0.5-0.9C693.4 141.2 693.8 140.8 693.8 140.8z"/><path class="st0" d="M685.2 156.7l-0.9 0.9c-0.9 0.9-0.9 0.9-4.1 1.4 -0.9 0-1.8 0.9-2.7 1.8 0.5 0 0.5 0.5 0.9 0.5 2.7 0.9 5.5 1.4 7.7 0.9 0-0.5 0-0.5 0-0.9 0-1.8-0.5-3.2-0.5-3.6C686.1 156.3 685.6 156.3 685.2 156.7z"/><path class="st0" d="M697 151.7c-0.5 0.5-0.9 0.9-2.7 1.4l-1.4 0.5c-1.4 0.5-1.8 1.8-2.3 2.7 -0.5 1.4-0.5 2.7-0.5 4.1l0 0C693.4 158.5 695.7 155.4 697 151.7z"/><path class="st0" d="M674.7 127.6c0.5 0.5 1.8 2.7 1.8 4.6 0 0.5 0 0.5 0 0.9 0 0.9-0.9 1.8-1.4 2.3l-1.4 0.9c-2.3 1.4-2.7 1.8-3.2 4.1 0 0-0.5 0.5-0.9 0.5 -0.5-0.5-2.3-3.2-2.3-5 0-0.5 0-0.5 0-0.9 0-0.9 0.9-1.8 1.8-2.3l0.5-0.5c3.2-1.8 4.1-2.7 4.1-4.1C673.8 128 674.3 127.6 674.7 127.6z"/><path class="st0" d="M672.9 118.5c0.5 0.5 0.5 1.4 0.5 2.7 0 0.9 0 2.3-0.5 3.2 -0.5 0.9-0.9 2.3-1.8 2.7 -3.2 1.4-3.2 1.4-3.6 2.7l-0.5 0.9c0 0-0.5 0.5-0.9 0.5 -0.5-0.5-2.3-3.6-2.3-5.9 0-0.5 0-0.9 0-0.9 0.5-0.9 0.9-1.4 1.8-1.4l0.9-0.5c3.2-1.4 5-1.8 5.5-3.6C672 118.9 672.4 118.9 672.9 118.5z"/><path class="st0" d="M686.1 123c0.5 0.5 1.8 2.7 1.8 5v0.5c0 0.9-0.5 1.8-1.4 2.3l-1.4 0.9c-2.3 1.4-2.7 1.8-2.7 4.1 0 0-0.5 0.5-0.9 0.5 -0.5-0.5-2.3-3.2-2.3-5.5v-0.5c0-0.9 0.5-1.8 1.8-2.3l0.5-0.5c3.2-1.8 4.1-2.7 4.1-4.1l0 0C685.6 123.5 686.1 123.5 686.1 123z"/><path class="st0" d="M688.8 131.7c0.5 0.5 3.2 3.6 3.2 5.9 0 0 0 0 0 0.5 0 0.9-0.5 1.4-1.4 1.8l-0.9 0.5c-3.2 1.8-4.6 2.7-5 4.6 0 0-0.5 0.5-0.9 0.5 -0.5-0.9-1.4-3.2-1.4-5 0-0.5 0-0.5 0-0.9 0-0.9 0.5-2.3 1.4-3.2 2.7-1.8 2.7-2.3 2.7-3.2v-0.9C688.4 132.1 688.8 131.7 688.8 131.7z"/><path class="st0" d="M677.4 136.2c0.5 0.5 3.2 3.6 3.2 5.9v0.5c0 0.9-0.5 1.4-1.4 1.8l-0.9 0.5c-3.2 1.8-4.6 2.7-5 4.6 0 0-0.5 0.5-0.9 0.5 -0.5-0.9-0.9-2.7-0.9-4.6 0-0.5 0-0.9 0-1.4 0-0.9 0.5-2.3 1.4-3.2 2.7-1.8 2.7-1.8 3.2-3.2 0 0 0-0.9 0.5-0.9C677 136.7 677.4 136.7 677.4 136.2z"/><path class="st0" d="M674.7 114.4c0-1.8 0.9-4.1 2.3-5 0.9-0.5 1.8-0.9 2.7-0.9h0.5c0.9 0 1.8 0 2.3 0.5 0.5 0.5 0.9 0.9 0.9 1.4s0.5 0.9 0.5 1.4c0 0.9-0.5 0.9-1.8 1.4l0 0c-3.6 1.4-5.5 1.8-5.9 3.6 0 0-0.5 0-0.9 0.5C674.7 115.7 674.7 115.3 674.7 114.4z"/><path class="st0" d="M662.9 118.5c0-1.8 0.9-4.1 2.3-5 0.9-0.5 1.8-0.9 2.7-0.9h0.5c0.9 0 1.8 0 2.3 0.5 0.5 0.5 0.9 0.9 0.9 1.4s0.5 0.9 0.5 1.4c0 0.9-0.5 0.9-1.8 1.4l0 0c-3.6 1.4-5.5 1.8-5.9 3.6 0 0-0.5 0-0.9 0.5C663.3 120.3 662.9 119.4 662.9 118.5z"/><path class="st0" d="M684.7 113.9c0.5 0.5 0.5 1.8 0.5 3.2 0 0.9 0 1.8-0.5 2.7 -0.5 0.9-0.9 2.3-1.8 2.7 -2.7 1.4-3.2 1.4-3.2 2.7l-0.5 0.9c0 0-0.5 0.5-0.9 0.5 -0.5-0.5-2.3-3.6-2.3-5.9 0-0.5 0-0.5 0-0.9 0-0.9 0.9-1.4 1.8-1.8l0.9-0.5c3.2-1.4 5-1.8 5.5-3.6C683.8 113.9 684.3 113.9 684.7 113.9z"/><path class="st0" d="M423.7 253.3c0 0-0.5-0.5-0.5-0.9 -1.8 1.8-3.6 4.1-5 5 -0.9 0.9-4.6 3.2-3.6 4.6l0 0c0.5 1.4 4.6 0.5 5.9 0.5 1.8 0 5 0 7.7 0 -0.9-0.9-3.6-4.1-3.6-7.7L423.7 253.3z"/><path class="st0" d="M433.3 232.8L433.3 232.8 433.3 232.8z"/><path class="st0" d="M445.1 173.6c0.9 0.5 1.4 0.5 2.7 3.2 1.4-2.3 2.3-4.1 3.6-6.4 -0.5-0.5-0.9-0.5-1.4-0.9 -2.3-0.5-5.9 2.3-6.4 2.7l0.5 0.9C444.2 173.1 445.1 173.6 445.1 173.6z"/><path class="st0" d="M463.3 203.2c1.4-8.7 3.2-18.2 4.6-26v-0.5c0 0 0 0 0-0.5 0-0.5 0-0.5 0-0.9l0 0c0 0 0-0.5 0-0.9l0 0c0-0.5 0-1.4 0-1.8 -0.5-2.3-0.5-5.9-2.3-6.8 -1.4-0.9-6.4-0.5-7.3 0 -0.5 0-1.8 2.3-1.8 2.3 -0.5 0.9-1.4 1.8-1.8 2.7l0 0c-2.7 4.6-5 9.1-7.3 13.7l0 0c-8.2 16.9-12.8 34.2-15 45.6 0.5 0.9 0.5 1.8 0.9 2.7l0 0c0.5 0 0.9 0 1.4-0.5 0.5 0 0.9 0 1.4 0l0.5-0.5c0.9-1.8 4.1-4.1 7.3-4.6 0.5 0 0.5 0 0.9 0v-0.5c0.9-1.8 3.6-4.1 6.4-5.5 0.5-0.5 1.4-0.5 1.8-0.5 0.9-1.8 3.2-4.6 5.5-5.9 0.5 0 0.5-0.5 0.9-0.5 0.5-1.8 1.8-5 4.1-6.8l0 0L463.3 203.2z"/><path class="st0" d="M475.6 185.9c0.5 0.5 1.8 3.2 1.8 5.5 0 0.5 0 0.9-0.5 1.4 -0.5 0.9-0.9 1.4-1.8 1.4h-0.9c-3.6 0.9-5 1.4-5.9 3.2 0 0-0.5 0-0.9 0.5 0-0.5 0-0.9 0-1.8 0-1.4 0.5-2.7 0.9-4.1 0.5-0.9 0.9-2.3 2.3-2.7 3.2-0.9 3.2-1.4 3.6-2.3l0.5-0.9C474.7 185.9 475.2 185.9 475.6 185.9z"/><path class="st0" d="M459.2 216.9c0.9-0.5 2.3-0.9 3.2-0.5 3.2 0.9 3.2 0.9 4.1 0.5l0.9-0.5c0 0 0.5 0 0.9 0.5 0 0.9-0.9 5-3.2 6.4 -0.9 0.5-1.4 0.5-2.3 0l-0.9-0.5c-3.2-1.4-5-2.3-6.8-1.4 0 0-0.5 0-0.9-0.5C455.1 220 456.9 217.8 459.2 216.9z"/><path class="st0" d="M451.5 223.2c0.9-0.5 2.3-0.5 3.6 0 2.7 1.4 3.2 1.4 4.1 1.4h0.9c0 0 0.5 0.5 0.9 0.5 -0.5 0.9-1.8 5-4.1 5.5 -0.9 0.5-1.4 0-2.3-0.5l-0.9-0.5c-2.7-1.8-4.6-2.7-5.9-2.3 0 0-0.5-0.5-0.9-0.5C447.4 226 449.2 224.1 451.5 223.2z"/><path class="st0" d="M443.7 229.2c1.4-0.5 2.7-0.5 3.2 0.5 2.7 1.8 2.7 1.8 4.1 1.8h0.9c0 0 0.5 0.5 0.9 0.5 -0.5 0.9-2.3 4.6-5 5 -0.9 0-1.4 0-2.3-0.5l-0.9-0.5c-2.7-2.3-4.1-3.2-5.9-2.7 0 0-0.5-0.5-0.9-0.5C439.2 231.4 441.5 230.1 443.7 229.2z"/><path class="st0" d="M472 207.3l0.9-0.5c0 0 0.5 0 0.9 0v0.5c0 1.4 0 5-1.8 6.4 -0.5 0.5-1.4 0.9-2.3 0.5h-0.9c-3.6-0.9-5.5-0.9-6.8 0 0 0-0.5 0-0.9 0 0-0.9 1.4-3.6 3.2-5 0.9-0.5 1.8-1.4 3.2-1.4C471.1 208.2 471.1 208.2 472 207.3z"/><path class="st0" d="M476.5 196.8c0 0.5 0.5 1.8 0.5 3.6 0 1.4 0 2.7-0.9 3.6 -0.5 0.5-1.4 0.9-2.3 0.9h-0.9c-3.6 0-5.5 0-6.4 1.4 0 0-0.5 0-0.9 0l0 0c0-1.4 0.9-3.6 2.3-5.5 0.9-1.4 1.8-1.8 2.7-1.8 3.2 0 3.2-0.5 4.1-0.9 0 0 0.5-0.5 0.9-0.9C475.6 196.8 476.1 196.8 476.5 196.8z"/><path class="st0" d="M470.2 181.3c-0.5 1.8-0.9 3.6-1.4 5.9 0.9-0.9 1.8-1.4 3.6-2.7l0.9-0.5c0.9-0.5 1.4-0.9 1.4-1.8 0 0 0 0 0-0.5 0-2.3-2.7-5-3.6-5.9L470.2 181.3z"/><path class="st0" d="M436.4 241.9c0.5 0.5 1.4 0.9 2.3 0.9 2.3-0.5 5-4.1 5.5-4.6 0 0-0.5-0.5-0.9-0.5h-0.9c-1.4 0-1.4 0-3.6-1.8 -0.9-0.9-2.3-0.9-3.2-0.5 -0.5 0-0.9 0-1.4 0.5l0.9 2.3c0 0.5 0.5 1.8 0.9 3.6l0.5 0.5L436.4 241.9z"/><path class="st0" d="M497.9 250.6c0.9 0.5 4.1 2.7 4.6 5v0.5c0 0.5 0 0.9-0.5 1.4l0 0c-1.8 2.7-3.2 3.6-3.2 5.5 0 0.5 0 0.5 0 0.9 0 0-0.5 0.5-0.5 0.9 -1.4-0.9-2.7-2.7-3.2-4.6 0-0.5-0.5-0.9-0.5-1.4 0-0.5 0-1.4 0.5-1.8 1.4-2.3 1.8-3.2 1.8-4.1 0-0.5 0-0.5 0-0.9v-0.5C497.5 251.5 497.9 251 497.9 250.6z"/><path class="st0" d="M486.6 237.8c1.4 0.9 2.3 2.7 2.7 4.6 0 0.5 0 0.5 0 0.9 0 0.9 0 1.4-0.9 2.3 -2.3 2.7-2.3 3.2-2.3 4.6v0.5l-0.5 0.5c-0.9-0.5-4.1-3.2-4.1-5.5l0 0c0-0.5 0-0.9 0.5-1.4l0 0c2.3-2.7 3.6-3.6 3.6-5.5v-0.5C486.1 238.3 486.6 237.8 486.6 237.8z"/><path class="st0" d="M483.8 230.1c0.9 0.9 1.4 2.7 1.4 4.6v0.5c0 0.9-0.5 2.3-1.4 3.2 -2.7 2.3-3.2 2.3-3.6 4.1v0.5c0 0-0.5 0.5-0.9 0.5 -0.5-0.9-2.7-3.6-2.7-5.9v-0.5c0-0.5 0.5-1.4 0.9-1.4l0 0c3.2-1.8 4.6-2.7 5-4.6C483.4 230.1 483.8 230.1 483.8 230.1z"/><path class="st0" d="M483.8 221.4c0 0.5 0 0.9 0 1.4 0 1.4-0.5 3.2-0.9 4.6 -0.5 0.9-0.9 2.3-2.3 2.3 -3.2 0.9-3.2 0.9-3.6 2.3l-0.5 0.9c0 0-0.5 0-0.9 0.5 -0.5-0.5-1.4-3.2-1.4-5.5 0-0.5 0-0.9 0.5-1.4 0.5-0.9 0.9-1.4 1.8-1.4h0.9c3.6-0.9 5.5-1.4 5.9-2.7C482.9 221.9 483.4 221.4 483.8 221.4z"/><path class="st0" d="M491.6 244.6c0.9 0.5 4.1 2.3 4.6 4.1v0.5c0 0.5 0 0.9-0.5 1.4l0 0c-1.8 2.7-3.2 4.1-3.2 5.5 0 0.5 0 0.5 0 0.9l-0.5 0.5c-0.9-0.5-3.2-3.2-3.2-5.9 0-0.5 0-0.9 0.5-1.8 1.4-2.3 1.8-3.2 1.8-4.1 0-0.5 0-0.9 0-1.4v-0.5C491.1 245.1 491.6 244.6 491.6 244.6z"/><path class="st0" d="M484.3 205.5L484.3 205.5c-1.4-0.5-1.8-0.5-2.7-0.5 -2.3 0.9-3.2 5-3.6 5.9l0.9 0.5 0.9-0.5c0.9-0.5 1.4-0.5 4.1 0.9 0.5 0 0.9 0 0.9 0C484.7 210 484.7 207.7 484.3 205.5z"/><path class="st0" d="M485.6 214.1c-1.4 1.4-3.2 0.9-6.4 0h-0.9c-0.9 0-1.8 0-2.3 0.5 -1.4 1.4-1.8 4.6-1.8 6.4 0 0.5 0 0.5 0 0.5 0.5 0 0.9 0 0.9 0l0.9-0.5c0.9-0.9 0.9-0.9 4.1-0.5 1.4 0 2.3-0.5 3.2-1.4 0.9-0.9 1.8-2.3 2.3-3.6C485.6 215.5 485.6 214.6 485.6 214.1z"/><path class="st0" d="M511.2 275.6C511.6 275.6 511.6 275.6 511.2 275.6c1.4-0.5 1.8-1.4 1.8-1.8v-0.5c0-2.3-2.3-5-3.2-5.9 0 0-0.5 0.5-0.9 0.5l-0.5 0.9c-0.5 0.9-0.5 1.4-3.2 3.2l-0.5 0.5C507.5 273.3 509.3 274.7 511.2 275.6z"/><path class="st0" d="M501.6 269.7c0.5 0.5 1.4 0.9 1.8 1.4 0-1.4 1.4-2.7 3.6-4.6l1.4-0.9c0.5-0.5 0.9-1.4 0.9-1.8l0 0c0-2.3-3.6-5-4.6-5.5l-0.5 0.5v0.9l0 0c0 0.9 0 1.4-2.3 3.6 -0.5 0.9-0.9 1.8-0.9 2.7 0 0.5 0 0.5 0 0.5C501.1 267.9 501.6 268.8 501.6 269.7z"/><path class="st0" d="M486.1 220.5c0.5 0.5 0.5 1.4 0.5 2.3 0 1.4-0.5 3.2-0.9 5 1.4 1.8 2.3 4.6 2.3 7.3 1.4 0.9 2.7 2.7 3.6 5l3.6-1.8c-3.6-5.9-6.4-12.3-8.2-19.1 0 0 0 0 0 0.5C486.6 220 486.6 220 486.1 220.5z"/><path class="st0" d="M676.5 80.6c0 0 0-1.4-1.4-2.3 0 0-0.5-0.5-1.4-0.5 -13.2-5.5-47.4-23.7-62.9-31.9 -5.5-2.7-9.1-4.6-9.1-4.6 -0.5 0-4.1-1.4-6.4 0 -0.5 0-7.3 5-7.3 5s-0.5 0 0 0.5c0 1.4 0.9 6.4-0.5 7.3 -1.8 1.4-15.9 4.1-15.9 4.1l-1.8 2.7 -3.6-1.8c-0.9-0.5-1.8-0.5-3.2 0l-5.9 3.2 -5.9-3.2c-1.4-0.5-2.3-0.5-3.2 0l-3.6 1.8 -1.8-2.7c0 0-14.1-2.7-15.9-4.1 -1.4-0.9-0.5-5.9-0.5-7.3 0-0.5 0-0.5 0-0.5s-6.8-4.6-7.3-5c-2.3-1.8-5.9-0.5-6.4 0 0 0-3.6 1.8-9.1 4.6 -15.9 8.2-50.1 26.4-62.9 31.9 -0.9 0.5-0.9 0.5-1.4 0.5 -1.8 0.9-1.4 2.3-1.4 2.3v0.5c8.7 6.4 12.3 8.2 23.7 8.7h3.2c2.7 0 5.9 0 9.1-0.5 0.5 0 1.4-0.5 1.8-0.9 3.6-2.3 29.2-20 29.6-20.5 0.9-0.5 1.8-0.9 1.8-0.5l0.9 0.5c0 0 1.4 0.9 0.9 1.4s-21.9 20-21.9 20h9.6c0 0 4.1 0.5 6.4-1.8 2.3-1.8 11.4-10.9 11.8-11.4 0.5-0.5 1.4-0.5 1.8-0.5 0.9 0 2.3 0.9 2.3 0.9s0.5 0.5 0 0.9c-0.5 0.5-10.9 15-10.9 15s0.5 3.2 8.7 5c3.2 0.5 8.2 0.5 14.1 0.5 0 0 3.6-10.5 4.1-11.4 0.5-0.5 0.9-0.5 0.9-0.5s0.9 0 2.3 0.5c0.5 0 0.9 0.9 0.9 1.8l3.6 12.3c0 0.5 0 2.3-2.3 5.5 -2.3 3.2-14.6 20-15 20.5 -0.5 0.5 0.5 1.8 0.9 2.3l1.4 1.8c0.9 1.4 1.8 1.4 2.7 1.4l0 0 0 0c2.7-0.9 5.5-1.8 8.7-2.7l7.3-12.8c0.5-0.5 0.9-0.5 0.9-0.5s1.4 0.5 2.3 0.9c0.5 0 0.5 0.9 0.5 1.8 0 0.5-1.4 5-2.3 9.1 2.7-0.5 5.5-0.5 8.2-0.5 3.6 0 7.3 0 10.5 0.5 -0.5-1.4-1.8-8.7-2.3-9.1 0-0.5 0-1.4 0.5-1.8 0.9-0.5 2.3-0.9 2.3-0.9s0.5-0.5 0.9 0.5l7.3 12.8c2.7 0.9 5.5 1.4 8.2 2.7 0 0 0.5 0 0.5 0.5l0 0c0.9 0 1.4 0 2.7-1.4l1.4-1.8c0.5-0.5 1.4-1.8 0.9-2.3 -0.5-0.5-12.8-17.3-15-20.5 -1.8-3.2-2.3-5-2.3-5.5l3.6-12.3c0-0.9 0.5-1.8 0.9-1.8 1.4-0.5 2.3-0.5 2.3-0.5s0.5 0 0.9 0.5c0.5 0.9 4.1 11.4 4.1 11.4 5.9 0 10.9 0 14.1-0.5 8.2-1.8 8.7-5 8.7-5s-10.5-14.6-10.9-15 0-0.9 0-0.9 1.4-0.9 2.3-0.9c0.5 0 1.4 0 1.8 0.5 0.5 0.5 9.6 9.6 11.8 11.4 2.7 2.3 6.4 1.8 6.4 1.8h9.6c0 0-21.4-19.6-21.9-20 -0.5-0.5 0.9-1.4 0.9-1.4l0.9-0.5c0.5 0 1.4 0 1.8 0.5 0.5 0.5 26 17.8 29.6 20.5 0.5 0.5 1.4 0.5 1.8 0.9 3.6 0 6.8 0.5 9.1 0.5h3.2c11.4 0 15-2.3 23.7-8.7L676.5 80.6z"/><path class="st0" d="M558.1 284.3c-15.5-1.4-30.5-8.7-40.1-12.8 -0.5 0-0.9-0.5-0.9-0.5 0 0.9 0.5 2.7 0.5 3.6 0.5 0.9 2.3 8.2 3.6 8.7 1.8 0.5 12.3 2.7 20 2.3 0.5 1.8-0.5 2.7-6.4 3.2 -5.9 0.5-17.8 0.5-18.2 0 0-0.9 0-6.8-2.3-7.7 -1.4-0.9-2.3-1.4-3.6-2.3l0 0c-0.5-0.5-1.4-0.9-1.8-0.9 -0.5 0-0.5-0.5-0.9-0.5l0 0c-13.7-8.2-31.4-19.1-32.3-24.6 0-1.8 0.5-4.6 2.3-5.9l-0.9-1.4c-0.5-0.9-3.6-5-3.2-8.7l0 0 0 0 -0.9-1.8c-0.5-0.9-2.7-5.9-1.4-9.1l-1.8 0.9c-0.9 0.5-2.3 0-3.6-0.5 -0.9 0.5-2.3 0.5-3.2 0.5 -0.9 1.8-2.7 5.9-5.9 6.8 -0.9 0.5-1.4 0.5-2.3 0.5 -0.9 1.8-3.2 5.5-6.4 6.4 -0.9 0-1.8 0-2.7 0 -0.9 1.4-3.6 5.5-7.3 5.9 -0.5 0-1.4 0-1.8 0l0 0c0.5 0.5 1.4 2.7 1.8 5.5l1.8 2.3c0.5 0.5 1.8 2.7 2.3 5.5l1.8 2.3c1.4 1.4 2.7 4.1 3.2 6.4l1.4 0.9c1.4 0.5 2.3 1.8 3.2 3.2 9.6 5.5 24.1 12.8 40.1 17.8 5.5 1.8 10.9 3.2 16.4 4.1l0 0c3.2 0.5 6.4 1.4 9.6 1.4 0 0 0.5 0 0.5 1.4 -0.5 1.8-2.3 8.7-2.3 9.1 0.5 0 20 5.5 40.5-16.4 2.7-3.2 3.2-4.1 4.1-5.5C559.5 284.3 558.5 284.3 558.1 284.3z"/><path class="st0" d="M451.5 301.1c-3.2-1.4-6.4-4.1-8.7-7.7 0 0-0.5 0-0.5-0.5 -2.7-1.8-5.5-4.6-6.8-8.2l0 0c-2.7-2.3-5.5-5.5-6.8-9.6 -0.9-0.9-1.8-2.3-3.2-3.6 -1.8 0-3.6 0-4.6 0h-0.5c-1.4 0-2.3 0.5-3.6 0.5 -5.5 0-8.7-1.8-10.5-5.9 -0.5-1.4-0.9-2.7-0.9-4.6H0V303h453.3C452.4 302.5 451.9 302.1 451.5 301.1L451.5 301.1z"/><path class="st0" d="M605.5 262c-0.9 0.5-1.8 0.9-2.7 1.4 -0.5 0.9-1.4 1.4-2.3 1.8 -10 6.8-21.4 10.9-33.3 12.3 0.9 0.5 1.4 1.4 1.8 2.3 1.4 2.7 1.4 5.9 0 9.1 -1.4 2.3-2.3 3.6-5.5 7.3 -2.3 2.7-5 4.6-7.3 6.8h492v-41.5H605.5C605.5 261.5 605.5 262 605.5 262z"/><polygon class="st0" points="66.1 103.9 123 191.3 124.4 191.3 182.2 103.4 182.2 232.8 244.2 232.8 244.2 7.7 178.1 7.7 124.4 94.8 70.6 7.7 5 7.7 5 232.8 66.1 232.8 "/><path class="st0" d="M410.5 226.9c-0.5-1.4-1.4-2.3-1.4-4.1 0-0.5 0-0.9 0-1.4 0-1.4 0-3.2 0.5-5.5 -0.5-1.4-0.9-2.3-0.9-3.6 0-1.8 0.5-4.6 1.8-7.3 0-0.9-0.5-1.8 0-3.2 0.5-1.8 1.4-5.5 3.2-8.2 0-0.9 0-1.4 0.5-2.3 0.9-2.7 2.3-6.4 5-9.1 0-0.5 0.5-0.9 0.5-1.4 1.4-2.3 3.6-5.9 7.3-8.2 0.5-0.5 0.9-1.4 1.4-1.8 2.3-2.3 5.9-5.5 10.5-5.9l0.5-0.5c-0.5-0.5-0.9-1.4-1.4-2.3 0-0.5 0-0.5-0.5-0.9l-12.8-9.1c-13.7 16.4-27.3 27.3-51 27.3 -31.4 0-53.8-26.4-53.8-60.1v-0.5c0-32.8 22.3-59.7 53.8-59.7 21.4 0 36.4 10.5 49.2 26.4l5.5-4.1c0-0.5 0-1.4 0-1.8l0 0c0-3.6 1.8-7.7 6.4-10l1.4-0.9c0 0 0.5 0 0.5-0.5 5-2.3 13.7-6.4 22.8-10.9l10.9-8.2c-20-27.8-49.7-46.9-95.7-46.9 -68.3 0-118.9 51.5-118.9 117.1v0.5c0 68.3 51.9 117.5 116.2 117.5 14.6 0 27.3-1.8 38.7-5 0-0.9-0.5-1.8-0.5-3.2C410 228.2 410.5 227.3 410.5 226.9z"/><path class="st0" d="M697.9 180c-2.7 1.4-5.9 2.3-9.1 2.7 -0.5 0.5-0.9 0.9-1.4 1.4 -2.3 1.8-5.9 3.6-10.5 4.1l0.5 0.9c1.4 3.2 0.9 7.7-2.3 10.9 0.5 1.8 0 3.2-0.5 5 0 0.5-0.5 0.9-0.9 1.4 21 19.1 48.7 30.5 79.7 30.5 49.7 0 78.4-21.4 99.8-51l-46.9-33.3C792.7 169 779 180 755.4 180c-16.4 0-30.5-7.3-39.6-18.7C712.5 169.5 706.6 176.3 697.9 180z"/><path class="st0" d="M677.9 69.7l1.4 0.9c4.6 2.3 6.4 6.4 6.4 10l0 0c0 3.2-1.4 5.9-3.6 7.7 -9.6 7.3-15 10-28.7 10h-3.2c-2.7 0-5.9 0-9.6-0.5 0 0 0 0-0.5 0 -0.9 4.6-1.4 8.7-1.8 13.2 0 0 0 0 0.5 0 2.3 0.9 4.6 2.7 5.5 5l1.8 3.6c0.9 2.3 0.9 5 0.5 7.3l0 0 0.9 2.3c1.4-4.6 4.1-9.1 7.3-12.8 0.5-4.6 2.7-8.7 6.4-10.9 2.3-1.4 4.1-1.8 5.5-2.3h0.5c1.4-0.5 2.7-0.5 3.6-0.5 0.5-0.5 0.9-0.9 1.8-1.4 2.3-1.4 4.6-1.8 5.5-2.3h0.5c2.7-0.9 6.4-0.5 9.1 1.4 2.7 1.4 4.6 3.6 5.5 6.4 3.6 1.4 7.3 3.2 10.5 5.5 2.7-29.6 24.1-52.8 53.3-52.8 21.4 0 36.4 10.5 49.2 26.4l46.9-36.4c-20-27.8-49.7-46.9-95.7-46.9 -44.6 0-81.5 21.9-102.1 55.6 9.1 4.6 17.8 8.7 22.8 10.9C677.4 69.2 677.9 69.7 677.9 69.7z"/><path class="st0" d="M969.5 92.5c-31-7.3-38.7-11.4-38.7-21.9v-0.5c0-8.2 7.3-14.6 22.3-14.6 20 0 42.4 7.7 62.9 22.3l31-44.2c-24.6-19.6-54.2-30.1-92.5-30.1 -54.2 0-87 30.1-87 72v0.5c0 46.5 36.9 59.7 84.7 70.6C982.7 154 990 159 990 168.1v0.5c0 9.6-9.1 15.5-25.5 15.5 -26 0-51-9.1-72.9-26.9l-34.6 41.5c27.8 24.6 65.6 37.4 105.7 37.4 54.7 0 91.1-27.3 91.1-73.3v-0.5C1053.3 120.3 1021 103.9 969.5 92.5z"/></svg>
